<svg width="225" height="225" viewBox="0 0 225 225" fill="none" xmlns="http://www.w3.org/2000/svg">
<path d="M46.0552 141.737C47.4008 140.894 48.8244 140.179 50.3057 139.601C59.382 139.988 68.4274 141.074 77.3323 142.856C78.6154 143.111 79.9173 143.391 81.0571 144.036C82.0927 144.624 82.9452 145.487 83.7361 146.381C86.0726 149.006 89.1305 153.97 90.7952 157.425C90.2769 158.409 89.8607 159.443 89.5647 160.514C89.5251 160.65 89.4934 160.787 89.4583 160.926C87.6199 158.193 85.6512 155.545 83.5633 152.996C82.2054 151.336 80.7613 149.689 78.9053 148.614C76.2782 147.088 73.1206 146.865 70.0895 146.71C60.7638 146.233 51.4251 146.06 42.0894 146.182C42.152 145.952 41.7901 144.612 41.8841 144.399C42.6191 142.759 44.5359 142.695 46.0552 141.737Z" fill="#0071BC"/>
<path d="M86.8526 158.386L173.972 148.423C173.086 152.939 171.216 157.279 168.822 161.232C167.484 163.444 165.983 165.543 164.386 167.574C155.835 173.054 144.487 176.188 133.099 177.489C121.794 178.781 110.524 178.234 100.589 174.941C98.5477 173.302 96.5805 171.576 94.7571 169.699C91.5337 166.387 88.7298 162.586 86.8492 158.387L86.8526 158.386Z" fill="#27AE60"/>
<path d="M132.177 169.265C107.889 172.044 87.2772 166.23 86.1389 156.281C85.0006 146.331 103.767 136.013 128.055 133.234C152.343 130.455 172.955 136.269 174.093 146.218C175.231 156.168 156.465 166.486 132.177 169.265Z" fill="#1B334D"/>
<g style="mix-blend-mode:screen" opacity="0.5">
<path d="M128.235 134.907C116.702 136.227 106.091 139.294 98.3609 143.541C91.1878 147.485 87.3363 152.055 87.799 156.083C88.2583 160.112 93.0438 163.697 100.922 165.919C109.413 168.315 120.438 168.905 131.975 167.588C143.508 166.269 154.119 163.201 161.849 158.954C169.022 155.01 172.873 150.44 172.41 146.412C171.951 142.383 167.166 138.798 159.288 136.576C150.797 134.18 139.772 133.59 128.235 134.907ZM128.044 133.232C152.333 130.456 172.945 136.27 174.081 146.219C175.22 156.168 156.452 166.483 132.165 169.263C107.877 172.039 87.2643 166.225 86.1287 156.276C84.9896 146.327 103.757 136.012 128.044 133.232Z" fill="#1B334D"/>
</g>
<mask id="mask0_17_217" style="mask-type:luminance" maskUnits="userSpaceOnUse" x="87" y="134" width="86" height="35">
<path d="M161.845 158.955C154.116 163.206 143.504 166.27 131.971 167.589C120.439 168.908 109.409 168.316 100.918 165.92C93.0401 163.698 88.2581 160.112 87.7954 156.084C87.3361 152.055 91.1831 147.483 98.3572 143.542C106.086 139.292 116.698 136.228 128.231 134.908C139.764 133.589 150.793 134.181 159.284 136.577C167.162 138.799 171.944 142.385 172.407 146.413C172.866 150.442 169.019 155.014 161.845 158.955Z" fill="white"/>
</mask>
<g mask="url(#mask0_17_217)">
<g style="mix-blend-mode:screen">
<path d="M132.974 176.24C112.068 178.632 94.3271 173.629 93.3474 165.065C92.3677 156.502 108.521 147.621 129.426 145.23C150.331 142.838 168.072 147.841 169.052 156.404C170.032 164.968 153.879 173.848 132.974 176.24Z" fill="#1B334D"/>
</g>
<path d="M132.569 172.702C121.451 173.974 112.015 171.314 111.494 166.761C110.973 162.207 119.564 157.485 130.683 156.213C141.801 154.941 151.236 157.601 151.757 162.154C152.278 166.708 143.687 171.43 132.569 172.702Z" fill="#1B334D"/>
<path d="M133.246 178.742C143.676 177.549 153.325 174.747 160.422 170.845C168.193 166.574 172.146 161.339 171.546 156.114C170.95 150.888 165.92 146.683 157.384 144.275C149.591 142.075 139.556 141.522 129.126 142.715C118.697 143.908 109.047 146.711 101.951 150.612C94.1799 154.883 90.2268 160.118 90.8266 165.343C91.423 170.569 96.4524 174.774 104.989 177.182C112.781 179.382 122.816 179.935 133.246 178.742Z" stroke="#27AE60" stroke-width="2.36" stroke-miterlimit="10"/>
</g>
<path d="M45.8501 139.955C47.1957 139.111 48.6193 138.397 50.1006 137.818C59.1769 138.205 68.2223 139.291 77.1272 141.073C78.4103 141.329 79.7122 141.608 80.852 142.254C81.8877 142.842 82.7401 143.705 83.5311 144.598C85.8675 147.224 88.9254 152.188 90.5902 155.643C90.0719 156.626 89.6556 157.66 89.3596 158.732C89.3201 158.868 89.2884 159.005 89.2533 159.143C87.4149 156.41 85.4461 153.763 83.3583 151.213C82.0003 149.554 80.5563 147.907 78.7003 146.831C76.0731 145.306 72.9155 145.082 69.8845 144.927C60.5587 144.45 51.22 144.277 41.8843 144.399C41.9469 144.17 42.0275 143.949 42.1214 143.736C42.8564 142.096 44.3309 140.912 45.8546 139.957L45.8501 139.955Z" fill="#27AE60"/>
<path d="M76.2241 141.133C72.9668 141.057 69.634 140.158 66.4187 139.668C64.7344 139.412 63.051 139.17 61.3627 138.948C59.7838 138.741 58.1617 138.682 56.6599 138.125C56.5543 138.087 56.6154 137.948 56.7015 137.936C59.8458 137.534 63.4493 138.531 66.5642 139.011C69.6791 139.492 73.2353 139.804 76.2659 140.932C76.3681 140.971 76.3235 141.139 76.2218 141.137L76.2241 141.133Z" fill="#1B334D"/>
<path d="M51.176 140.698C51.524 140.435 52.0071 140.541 52.3121 140.82C52.3911 140.892 52.397 141.018 52.3244 141.097C51.6083 141.881 50.4901 141.899 49.5903 141.433C49.4559 141.363 49.3689 141.158 49.4605 141.021C50.1365 140.003 51.6595 139.901 52.5332 140.713C52.6968 140.864 52.6534 141.095 52.4908 141.221C52.0291 141.587 51.4529 141.78 50.8603 141.73C50.3953 141.693 49.7582 141.467 49.7847 140.896C49.8094 140.368 50.4212 140.145 50.8553 140.072C51.4492 139.971 52.0447 140.114 52.5398 140.448C52.76 140.6 52.7793 140.864 52.5673 141.036C51.974 141.507 51.1482 141.55 50.5073 141.145C50.3339 141.034 50.2477 140.784 50.4132 140.62C50.9408 140.094 51.8093 140.068 52.3185 140.638C52.4694 140.808 52.4656 141.034 52.2745 141.176C51.8716 141.479 51.3752 141.557 50.8988 141.389C50.7089 141.321 50.5984 141.172 50.6301 140.964C50.7017 140.536 51.4274 140.259 51.5382 140.801C51.5561 140.882 51.526 140.989 51.4307 141.007C51.4009 141.032 51.3658 141.039 51.3321 141.027L51.1394 140.725C51.4244 140.845 51.6652 140.776 51.9021 140.601L51.858 141.139C51.6074 140.854 51.1983 140.781 50.9064 141.068L50.8124 140.543C51.272 140.836 51.7744 140.802 52.1949 140.46L52.2224 141.047C51.9854 140.889 51.7342 140.77 51.45 140.735C51.3293 140.721 50.5756 140.707 50.5306 140.897C50.4858 141.076 51.0928 141.076 51.2241 141.065C51.5773 141.033 51.8599 140.895 52.1359 140.677L52.0935 141.185C51.4469 140.583 50.5107 140.739 49.9498 141.361L49.9299 140.929C50.5799 141.399 51.4465 141.212 52.0639 140.793L52.0063 141.062C51.8205 140.746 51.5143 140.678 51.1767 140.724C51.1562 140.731 51.15 140.699 51.1649 140.687L51.176 140.698Z" fill="#1B334D"/>
<path d="M157.913 144.36C157.074 142.35 155.502 140.735 153.525 139.825L150.944 138.634C146.062 136.387 131.642 135.389 122.684 136.127C113.725 136.864 104.457 141.603 104.457 141.603C103.167 141.728 102.045 142.628 101.357 143.729C100.67 144.83 100.352 146.117 100.101 147.392C99.9422 148.195 99.8111 149.004 99.6993 149.815C99.5552 150.857 99.7443 151.921 100.246 152.85C101.857 155.835 104.807 158.064 107.941 159.176C112.079 160.645 116.533 160.524 120.878 160.389C127.129 160.193 133.477 159.982 139.414 157.955C142.916 156.762 146.23 154.947 149.835 154.153C151.832 153.712 153.926 153.58 155.78 152.686C157.51 151.849 159.017 150.078 158.982 148.1C158.932 147.752 158.876 147.406 158.798 147.064C158.592 146.136 158.283 145.236 157.916 144.359L157.913 144.36Z" fill="#FBB016"/>
<path d="M157.435 143.233C157.178 142.324 156.529 141.558 155.825 140.881C151.647 136.857 145.35 135.266 139.265 134.791C135.843 134.524 132.493 134.413 129.184 134.518C125.823 134.625 122.5 134.959 119.181 135.569C119.15 135.576 119.113 135.58 119.082 135.586C119.015 135.599 118.947 135.61 118.88 135.623C116.819 135.991 114.768 136.476 112.777 137.099C109.502 138.122 106.385 139.527 103.615 141.426C102.311 142.32 101.039 143.395 100.567 144.813C100.066 146.305 100.56 147.955 101.538 149.217C102.516 150.479 103.926 151.399 105.386 152.18C110.716 155.031 117.072 156.274 123.26 155.675C125.518 155.458 127.743 155.005 129.964 154.549C134.925 153.538 139.884 152.524 144.845 151.513C147.482 150.975 150.139 150.43 152.613 149.423C153.991 148.862 155.337 148.138 156.302 147.074C157.267 146.009 157.81 144.557 157.435 143.233Z" fill="#FBB016"/>
<g style="mix-blend-mode:overlay" opacity="0.43">
<path d="M157.435 143.233C157.178 142.324 156.529 141.558 155.825 140.881C151.647 136.857 145.35 135.266 139.265 134.791C135.843 134.524 132.493 134.413 129.184 134.518C125.823 134.625 122.5 134.959 119.181 135.569C119.15 135.576 119.113 135.58 119.082 135.586C119.015 135.599 118.947 135.61 118.88 135.623C116.819 135.991 114.768 136.476 112.777 137.099C109.502 138.122 106.385 139.527 103.615 141.426C102.311 142.32 101.039 143.395 100.567 144.813C100.066 146.305 100.56 147.955 101.538 149.217C102.516 150.479 103.926 151.399 105.386 152.18C110.716 155.031 117.072 156.274 123.26 155.675C125.518 155.458 127.743 155.005 129.964 154.549C134.925 153.538 139.884 152.524 144.845 151.513C147.482 150.975 150.139 150.43 152.613 149.423C153.991 148.862 155.337 148.138 156.302 147.074C157.267 146.009 157.81 144.557 157.435 143.233Z" fill="#F8E2CA"/>
</g>
<path d="M149.651 146.691C150.272 146.496 150.835 146.296 151.375 146.074C152.731 145.523 153.68 144.932 154.284 144.27C154.818 143.682 155.083 142.951 154.941 142.452C154.788 141.908 154.123 141.271 153.907 141.061C150.677 137.953 145.549 136.102 138.667 135.568C135.125 135.289 131.903 135.206 128.82 135.304C125.448 135.41 122.279 135.745 119.136 136.318L118.824 136.375C116.763 136.743 114.8 137.219 112.986 137.786L112.921 137.807C109.665 138.832 106.799 140.188 104.399 141.835C103.586 142.394 102.47 143.24 102.171 144.136C101.942 144.823 102.183 145.744 102.801 146.542C103.437 147.36 104.411 148.096 105.965 148.925C110.929 151.581 116.845 152.734 122.623 152.178C124.772 151.969 126.976 151.519 129.106 151.085L143.986 148.048C145.88 147.661 147.838 147.262 149.655 146.69L149.651 146.691Z" fill="#B8604A"/>
<path d="M130.05 147.172C131.511 146.063 133.379 145.524 135.138 144.993C136.854 144.471 138.617 143.834 140.327 144.588C141.41 145.067 142.002 146.387 141.243 147.428C140.216 148.83 138.326 149.635 136.296 150.042C134.269 150.444 132.085 150.457 130.5 150.136C129.012 149.836 129.004 147.966 130.051 147.175L130.05 147.172Z" fill="#FBB016"/>
<path d="M145.218 139.953C145.858 139.643 146.636 139.615 147.361 139.642C148.067 139.659 148.828 139.708 149.309 140.25C149.613 140.596 149.567 141.128 149.149 141.349C148.587 141.646 147.888 141.649 147.178 141.561C146.47 141.466 145.736 141.289 145.19 141.067C144.682 140.868 144.758 140.18 145.221 139.952L145.218 139.953Z" fill="#FBB016"/>
<path d="M114.438 148.423C115.361 147.889 116.46 147.692 117.498 147.467C118.511 147.245 119.533 146.931 120.509 147.414C121.126 147.718 121.464 148.507 120.993 149.105C119.72 150.727 116.296 150.813 114.474 150.191C113.618 149.899 113.78 148.806 114.438 148.423Z" fill="#FBB016"/>
<path d="M126.689 144.517C127.004 144.219 127.422 144.035 127.809 143.849C128.19 143.666 128.563 143.447 128.994 143.544C129.269 143.607 129.477 143.886 129.344 144.168C128.992 144.931 127.647 145.287 126.867 145.214C126.501 145.179 126.461 144.731 126.686 144.518L126.689 144.517Z" fill="#FBB016"/>
<path d="M144.753 144.509C145.125 144.276 145.594 144.207 146.039 144.168C146.472 144.125 146.936 144.088 147.277 144.374C147.492 144.557 147.514 144.888 147.28 145.062C146.961 145.298 146.527 145.36 146.077 145.359C145.631 145.357 145.159 145.299 144.808 145.196C144.48 145.105 144.487 144.676 144.756 144.508L144.753 144.509Z" fill="#FBB016"/>
<path d="M132.859 76.3896C130.881 73.9366 128.624 71.5299 125.687 70.3866C121.946 68.9304 117.504 73.5512 115.542 76.7916C113.579 80.0321 106.472 84.5178 100.11 85.397C93.7474 86.2762 90.611 90.6656 90.611 90.6656C88.4491 94.4972 87.7085 99.0466 88.1824 103.42C88.1961 103.546 88.2087 103.67 88.2258 103.796C88.4349 105.483 89.0566 107.101 90.0611 108.47C92.7133 112.086 96.4112 114.871 100.742 115.954C106.737 117.454 113.052 115.664 118.764 113.3C119.93 112.816 121.093 112.308 122.204 111.707C130.152 107.429 135.103 98.665 136.128 89.6989C136.384 87.4528 136.397 85.1371 136.109 82.8785C135.891 81.175 135.248 79.5491 134.228 78.1655C133.783 77.5636 133.327 76.9693 132.859 76.3896Z" fill="#FBB016"/>
<path d="M131.734 77.5983C130.782 75.1105 129.37 72.7223 127.256 71.099C125.141 69.4756 122.24 68.7331 119.733 69.6383C116.538 70.7942 114.8 74.1288 112.598 76.7142C110.588 79.0744 108.003 80.9447 105.132 82.1072C101.597 83.5423 97.6339 83.936 94.3761 85.9171C91.9257 87.4042 90.0146 89.7594 89.0595 92.4617C87.4649 96.9764 88.6643 102.237 91.6786 105.957C94.6964 109.675 99.3397 111.892 104.097 112.436C110.869 113.215 117.797 110.73 123.073 106.413C123.329 106.201 123.582 105.983 123.832 105.766C126.626 103.323 128.956 100.394 130.846 97.1878C133.796 91.145 134.141 83.8764 131.736 77.5938L131.734 77.5983Z" fill="#FBB016"/>
<g style="mix-blend-mode:overlay" opacity="0.43">
<path d="M131.734 77.5983C130.782 75.1105 129.37 72.7223 127.256 71.099C125.141 69.4756 122.24 68.7331 119.733 69.6383C116.538 70.7942 114.8 74.1288 112.598 76.7142C110.588 79.0744 108.003 80.9447 105.132 82.1072C101.597 83.5423 97.6339 83.936 94.3761 85.9171C91.9257 87.4042 90.0146 89.7594 89.0595 92.4617C87.4649 96.9764 88.6643 102.237 91.6786 105.957C94.6964 109.675 99.3397 111.892 104.097 112.436C110.869 113.215 117.797 110.73 123.073 106.413C123.329 106.201 123.582 105.983 123.832 105.766C126.626 103.323 128.956 100.394 130.846 97.1878C133.796 91.145 134.141 83.8764 131.736 77.5938L131.734 77.5983Z" fill="#F8E2CA"/>
</g>
<path d="M122.06 102.731L121.985 102.791C124.471 100.619 126.671 97.9328 128.522 94.8138C131.179 89.3199 131.468 82.6687 129.298 77.0014C128.341 74.4966 127.066 72.6273 125.519 71.4361C123.903 70.1952 121.814 69.7251 120.198 70.2338C120.144 70.2509 120.086 70.2692 120.032 70.2898C118.232 70.9389 116.891 72.7249 115.471 74.6147C114.94 75.3213 114.393 76.0479 113.802 76.7399C111.567 79.3655 108.701 81.4367 105.508 82.7306C104.884 82.9835 104.209 83.222 103.442 83.4635C102.611 83.7254 101.776 83.9544 100.966 84.1793C100.16 84.4032 99.3983 84.6131 98.645 84.8503C97.1213 85.3301 96.0147 85.8021 95.059 86.384C93.0425 87.6071 91.4361 89.5853 90.6495 91.8112C89.3575 95.4663 90.2454 99.9525 92.9143 103.241C95.4371 106.351 99.4452 108.431 103.911 108.943C106.799 109.274 109.778 108.965 112.768 108.024C113.136 107.908 113.501 107.782 113.863 107.649L113.658 106.807C114.114 106.697 114.572 106.568 115.025 106.425L115.236 107.093C117.386 106.15 119.444 104.895 121.285 103.387C121.523 103.192 121.755 102.988 121.988 102.787L123.971 105.194L122.062 102.726L122.06 102.731Z" fill="#B8604A"/>
<path d="M130.54 97.8088C130.649 97.606 130.744 97.3963 130.844 97.1922C128.954 100.399 126.624 103.328 123.83 105.77C126.594 103.626 128.916 100.909 130.543 97.8077L130.54 97.8088Z" fill="#FBB016"/>
<path d="M99.3979 91.3834C99.6468 91.2338 99.9362 91.094 100.234 91.1013L100.372 91.1103C100.152 91.1236 99.9969 91.251 99.9036 91.4902L99.5767 91.8441C99.5498 92.6394 99.9157 93.0637 100.673 93.1137C101.055 93.0873 101.13 92.9473 101.35 92.6345C101.594 92.2882 101.737 91.9956 101.472 91.5921C101.287 91.3133 100.991 91.2416 100.687 91.1947C100.837 91.2187 100.98 91.0877 100.617 91.2094C100.021 91.4119 99.6843 92.2336 99.9053 92.8047C99.9866 93.0152 100.098 93.1074 100.28 93.2337C99.8914 92.9627 100.659 93.3056 100.196 93.2153C100.371 93.2499 100.521 93.2592 100.701 93.2023C100.827 93.1626 101.28 92.6977 101.062 92.9913C101.357 92.595 101.21 92.7723 101.152 92.8956C101.413 92.3224 101.204 93.1565 101.25 92.5164C101.221 92.8663 101.239 92.4484 101.214 92.3666C101.048 92.0665 101.03 92.0199 101.155 92.2277C101.059 92.0667 100.928 91.947 100.761 91.8685C100.764 91.8414 100.987 92.0147 101.015 91.9982L100.773 91.906C100.998 91.9549 101.204 92.0398 101.399 92.1583C101.268 92.0872 101.837 92.4064 101.906 92.542C102.044 92.8134 101.599 92.3877 101.871 92.5268C102.725 92.966 102.924 93.8962 102.485 94.7162C101.403 96.7393 98.6871 96.2418 97.5442 94.5634C96.5745 93.1378 96.8059 91.0642 98.0486 89.8824C99.6347 88.3752 102.377 88.6731 103.493 90.6223C104.007 91.517 104.172 92.6715 103.663 93.6147C103.155 94.5578 102.051 95.1226 100.981 95.1375C98.896 95.1682 97.2187 93.0062 98.1775 91.0295C99.1995 88.9206 102.681 89.2332 102.897 91.7279C102.988 92.8009 102.381 93.8385 101.342 94.1918C100.205 94.5763 98.8213 93.8954 98.7578 92.6227C98.7342 92.1431 98.9902 91.6354 99.4024 91.3857L99.3979 91.3834Z" fill="#FBB016"/>
<path d="M110.51 85.6592C110.332 85.7229 110.15 85.739 109.967 85.7066C109.786 85.7036 109.619 85.6589 109.458 85.567C109.291 85.4884 109.159 85.3766 109.053 85.2301C108.921 85.0991 108.83 84.9405 108.78 84.7577L108.717 84.3915C108.709 84.1506 108.76 83.9209 108.872 83.7058L109.074 83.4176C109.241 83.2339 109.444 83.1061 109.682 83.0276C109.86 82.9639 110.042 82.9477 110.225 82.9802C110.406 82.9832 110.574 83.0278 110.734 83.1198C110.901 83.1983 111.033 83.3102 111.139 83.4566C111.271 83.5877 111.362 83.7463 111.412 83.9291L111.475 84.2952C111.483 84.5361 111.432 84.7658 111.32 84.981L111.118 85.2692C110.951 85.4529 110.748 85.5806 110.51 85.6592Z" fill="#FBB016"/>
<path d="M112.875 92.1717C111.498 92.6053 110.821 90.4657 112.201 90.031C113.582 89.5964 114.256 91.7371 112.875 92.1717Z" fill="#FBB016"/>
<path d="M124.285 84.2857C123.999 84.3872 123.71 84.4106 123.417 84.3605C123.128 84.3579 122.857 84.2822 122.601 84.1377C122.337 84.0113 122.119 83.8324 121.952 83.5968C121.739 83.3864 121.596 83.1354 121.515 82.8424L121.414 82.2597C121.401 81.8707 121.484 81.5036 121.663 81.1585L121.985 80.6937C122.253 80.3998 122.577 80.1927 122.959 80.0725C123.245 79.9711 123.534 79.9476 123.827 79.9978C124.116 80.0003 124.387 80.0761 124.643 80.2205C124.907 80.347 125.125 80.5258 125.293 80.7615C125.505 80.9719 125.648 81.2229 125.729 81.5159L125.83 82.0985C125.843 82.4875 125.76 82.8546 125.581 83.1997L125.259 83.6645C124.992 83.9585 124.667 84.1655 124.285 84.2857Z" fill="#FBB016"/>
<path d="M126.866 93.6377C126.657 93.7111 126.445 93.729 126.231 93.6915C126.021 93.6903 125.821 93.6372 125.633 93.5278C125.439 93.4353 125.28 93.3015 125.156 93.131C125.002 92.977 124.896 92.7932 124.836 92.5798L124.762 92.1535C124.754 91.8674 124.813 91.6017 124.942 91.3473L125.18 91.0065C125.378 90.7906 125.614 90.6374 125.89 90.5505C126.1 90.4771 126.311 90.4592 126.525 90.4967C126.736 90.4979 126.936 90.551 127.124 90.6604C127.318 90.7529 127.476 90.8867 127.601 91.0572C127.754 91.2112 127.861 91.395 127.921 91.6085L127.995 92.0347C128.003 92.3208 127.944 92.5865 127.814 92.8409L127.577 93.1817C127.379 93.3976 127.142 93.5508 126.866 93.6377Z" fill="#FBB016"/>
<path d="M122.123 102.752C121.779 102.875 121.433 102.905 121.083 102.84C120.737 102.836 120.413 102.747 120.107 102.574C119.79 102.422 119.531 102.208 119.33 101.926C119.079 101.676 118.905 101.375 118.806 101.024L118.685 100.328C118.67 99.864 118.767 99.4248 118.982 99.0125L119.367 98.4606C119.687 98.1088 120.074 97.8632 120.53 97.716C120.873 97.5929 121.22 97.5625 121.57 97.6282C121.916 97.6318 122.24 97.7208 122.545 97.8943C122.863 98.0455 123.121 98.26 123.322 98.5414C123.574 98.792 123.747 99.0933 123.846 99.4442L123.968 100.14C123.983 100.604 123.885 101.043 123.67 101.455L123.286 102.007C122.966 102.359 122.579 102.605 122.123 102.752Z" fill="#FBB016"/>
<path d="M104.188 109.358C101.679 110.148 100.448 106.249 102.96 105.458C105.473 104.667 106.7 108.567 104.188 109.358Z" fill="#FBB016"/>
<path d="M107.324 101.315C105.927 101.755 105.239 99.5817 106.64 99.1406C108.041 98.6995 108.725 100.874 107.324 101.315Z" fill="#FBB016"/>
<path d="M93.106 104.35C92.6432 104.248 92.1984 104.013 91.8476 103.697C91.4591 103.343 91.2338 102.961 91.06 102.469C90.9359 102.122 90.9068 101.767 90.9715 101.414C90.9739 101.064 91.0653 100.736 91.2412 100.426L91.6337 99.8638C91.8678 99.584 92.1537 99.3854 92.4892 99.261C92.6949 99.1288 92.9233 99.0569 93.1676 99.0474C93.5138 98.9572 93.8619 98.9562 94.2141 99.0514L94.8578 99.2871C95.2757 99.5077 95.6119 99.8139 95.8709 100.208L95.8731 100.215C95.7269 100.036 95.5739 99.8597 95.4253 99.6854C95.432 99.6945 95.4375 99.7003 95.4465 99.7049L94.8811 99.3134C94.8811 99.3134 94.8956 99.3239 94.9035 99.3251L94.2587 99.086C94.2587 99.086 94.2745 99.0885 94.2824 99.0898L93.5873 99.0239C93.5873 99.0239 93.5975 99.0207 93.6054 99.022C94.0804 99.0073 94.5285 99.1097 94.9487 99.3259L95.5152 99.7208C95.8736 100.05 96.1292 100.445 96.2752 100.909C96.4004 101.259 96.4295 101.613 96.3659 101.971C96.3645 102.323 96.2731 102.652 96.0949 102.966C95.9426 103.292 95.7223 103.556 95.434 103.759C95.1777 104.016 94.8707 104.195 94.5119 104.293C94.0483 104.439 93.5778 104.456 93.1026 104.351L93.106 104.35Z" fill="#FBB016"/>
<path d="M120.888 75.1383C120.773 75.1782 120.657 75.1886 120.538 75.1697C120.422 75.1689 120.312 75.1399 120.21 75.0783C120.103 75.0257 120.017 74.9553 119.947 74.8614C119.86 74.7763 119.802 74.6748 119.772 74.5567L119.732 74.3221C119.728 74.166 119.76 74.0174 119.832 73.8784L119.961 73.6918C120.069 73.5716 120.2 73.489 120.354 73.4407C120.468 73.4008 120.585 73.3903 120.703 73.4093C120.82 73.4101 120.93 73.439 121.032 73.5007C121.138 73.5533 121.224 73.6237 121.295 73.7175C121.382 73.8026 121.44 73.9042 121.47 74.0222L121.51 74.2569C121.514 74.4129 121.482 74.5616 121.41 74.7005L121.281 74.8871C121.173 75.0074 121.041 75.09 120.888 75.1383Z" fill="#FBB016"/>
<path d="M119.658 88.8187L119.668 88.8267L119.822 89.0068C119.896 89.1109 119.936 89.2257 119.95 89.3525C119.974 89.4309 119.977 89.5123 119.958 89.5934C119.958 89.7132 119.927 89.828 119.866 89.9332L119.732 90.1254L119.552 90.2794C119.448 90.3534 119.333 90.3933 119.206 90.407C119.088 90.4367 118.968 90.437 118.846 90.4044L118.833 90.4008C118.528 90.3358 118.239 90.0823 118.158 89.778L118.114 89.5332C118.108 89.3703 118.142 89.2171 118.217 89.0737C118.269 88.9638 118.345 88.8724 118.443 88.804C118.531 88.7162 118.635 88.6535 118.76 88.6217C119.067 88.5251 119.423 88.5966 119.658 88.8187Z" fill="#FBB016"/>
<path d="M146.817 102.028C144.21 101.766 141.337 103.424 137.851 106.05C132.659 109.955 124.852 118.906 113.579 123.265C102.307 127.623 101.124 130.375 101.124 130.375C99.8473 132.616 99.3368 135.231 99.3963 137.824C99.4173 138.795 99.7737 139.724 100.418 140.45C101.957 142.184 104.175 143.411 106.475 143.86C110.396 144.63 114.448 143.586 118.181 142.164C123.342 140.194 128.192 137.498 132.947 134.693C138.913 131.174 144.909 127.334 149.03 121.765C151.527 118.39 153.208 114.234 153.495 110.087C153.557 109.19 153.273 108.302 152.742 107.577C151.495 105.879 150.1 104.291 148.559 102.847C148.08 102.398 147.472 102.095 146.818 102.031L146.817 102.028Z" fill="#FBB016"/>
<path d="M150.059 104.956C149.767 104.22 149.358 103.517 148.776 102.977C147.602 101.89 145.85 101.609 144.277 101.895C142.703 102.181 141.267 102.963 139.898 103.791C137.069 105.502 134.391 107.458 131.753 109.48C130.021 110.808 128.318 112.184 126.702 113.655C124.862 115.332 122.836 116.832 120.745 118.176C115.84 121.328 110.512 123.755 105.453 126.655C102.737 128.215 99.784 130.414 100.077 133.713C100.206 135.159 100.981 136.467 102.096 137.401C104.301 139.251 107.204 139.535 109.963 139.36C115.465 139.01 120.725 136.987 125.669 134.553C133.974 130.466 141.834 125.005 147.161 117.435C148.443 115.615 149.58 113.657 150.194 111.515C150.809 109.374 150.875 107.026 150.051 104.955L150.059 104.956Z" fill="#FBB016"/>
<g style="mix-blend-mode:overlay" opacity="0.43">
<path d="M150.059 104.956C149.767 104.22 149.358 103.517 148.776 102.977C147.602 101.89 145.85 101.609 144.277 101.895C142.703 102.181 141.267 102.963 139.898 103.791C137.069 105.502 134.391 107.458 131.753 109.48C130.021 110.808 128.318 112.184 126.702 113.655C124.862 115.332 122.836 116.832 120.745 118.176C115.84 121.328 110.512 123.755 105.453 126.655C102.737 128.215 99.784 130.414 100.077 133.713C100.206 135.159 100.981 136.467 102.096 137.401C104.301 139.251 107.204 139.535 109.963 139.36C115.465 139.01 120.725 136.987 125.669 134.553C133.974 130.466 141.834 125.005 147.161 117.435C148.443 115.615 149.58 113.657 150.194 111.515C150.809 109.374 150.875 107.026 150.051 104.955L150.059 104.956Z" fill="#F8E2CA"/>
</g>
<path d="M116.561 134.458C118.902 133.72 121.436 132.675 124.301 131.268C133.693 126.647 140.457 121.273 144.985 114.842C146.38 112.859 147.249 111.18 147.711 109.566C148.247 107.7 148.219 105.862 147.636 104.389C147.424 103.86 147.173 103.456 146.888 103.193C146.316 102.662 145.295 102.451 144.228 102.645C143.991 102.689 143.744 102.749 143.495 102.827C142.503 103.139 141.508 103.703 140.578 104.262C137.626 106.046 134.906 108.071 132.631 109.818C130.661 111.33 129.1 112.619 127.72 113.878C125.922 115.52 123.823 117.113 121.48 118.619C118.435 120.574 115.221 122.265 112.112 123.899C110.122 124.945 108.065 126.027 106.098 127.156C102.969 128.951 101.642 130.496 101.789 132.166C101.86 132.975 102.319 133.79 103.05 134.399C104.46 135.581 106.479 136.043 109.404 135.86C111.688 135.714 114.029 135.258 116.562 134.461L116.561 134.458Z" fill="#B8604A"/>
<path d="M137.183 121.239C137.647 120.037 138.532 119.016 139.335 118.018C140.121 117.04 140.844 115.969 142.124 115.679C142.935 115.494 143.851 115.978 143.865 116.903C143.883 118.148 143.103 119.443 142.045 120.522C141.515 121.063 140.919 121.551 140.315 121.954C140.015 122.154 139.712 122.335 139.416 122.488C139.268 122.565 139.122 122.637 138.98 122.7C138.908 122.731 138.838 122.76 138.769 122.79C138.692 122.821 138.649 122.827 138.518 122.91C138.404 122.976 138.251 123.061 138.021 123.104C137.908 123.124 137.777 123.128 137.66 123.101C137.632 123.095 137.603 123.085 137.575 123.079L137.47 123.045C137.38 123.009 137.306 122.962 137.243 122.906C137.011 122.68 137.021 122.486 137.035 122.354C137.059 122.215 137.121 122.102 137.215 122.009C137.306 121.916 137.454 121.874 137.532 121.909C137.615 121.935 137.635 121.996 137.646 122.045C137.656 122.098 137.646 122.15 137.64 122.204C137.638 122.246 137.638 122.22 137.638 122.22L137.634 122.207C137.634 122.207 137.629 122.193 137.64 122.204C137.65 122.213 137.684 122.224 137.711 122.227C137.738 122.23 137.738 122.219 137.717 122.233C137.706 122.236 137.692 122.248 137.684 122.258L137.675 122.268L137.69 122.185C137.69 122.185 137.729 122.105 137.423 121.775L137.26 121.605L137.124 121.468C137.124 121.468 137.128 121.422 137.131 121.395C137.143 121.338 137.16 121.284 137.181 121.233L137.183 121.239Z" fill="#FBB016"/>
<path d="M115.041 124.872C115.375 124.456 115.849 124.165 116.289 123.873C116.72 123.587 117.139 123.253 117.678 123.3C118.021 123.331 118.319 123.634 118.209 123.999C117.912 124.984 116.334 125.646 115.377 125.688C114.926 125.707 114.801 125.169 115.038 124.874L115.041 124.872Z" fill="#FBB016"/>
<path d="M126.863 117.509C127.17 116.914 127.725 116.451 128.258 116.028C128.777 115.617 129.324 115.175 130.003 115.239C130.432 115.28 130.767 115.676 130.618 116.109C130.423 116.691 129.901 117.163 129.304 117.553C128.706 117.936 128.02 118.246 127.47 118.389C126.954 118.525 126.637 117.936 126.863 117.509Z" fill="#FBB016"/>
<path d="M123.629 126.444C123.837 126 124.202 125.634 124.535 125.278C124.86 124.928 125.165 124.54 125.662 124.466C125.977 124.419 126.313 124.628 126.292 124.979C126.239 125.929 124.963 126.863 124.11 127.105C123.708 127.22 123.482 126.763 123.633 126.446L123.629 126.444Z" fill="#FBB016"/>
<path d="M136.887 111.756C137.266 111.034 137.898 110.456 138.476 109.888C139.042 109.332 139.574 108.711 140.4 108.623C140.922 108.567 141.463 108.94 141.406 109.52C141.244 111.089 139.064 112.543 137.632 112.885C136.959 113.045 136.618 112.272 136.887 111.756Z" fill="#FBB016"/>
<path d="M110.044 133.538C110.889 132.89 111.954 132.547 112.953 132.188C113.929 131.835 114.902 131.391 115.933 131.74C116.587 131.961 117.025 132.697 116.637 133.355C115.585 135.132 112.201 135.665 110.313 135.286C109.426 135.108 109.444 134.001 110.047 133.537L110.044 133.538Z" fill="#FBB016"/>
<path d="M104.295 132.044C104.392 131.807 104.629 131.631 104.869 131.522C105.099 131.409 105.387 131.337 105.6 131.476C105.737 131.567 105.74 131.743 105.624 131.839C105.471 131.973 105.294 132.04 105.102 132.108C104.968 132.158 104.779 132.225 104.538 132.316C104.382 132.38 104.222 132.217 104.295 132.044Z" fill="#FBB016"/>
<path d="M106.232 97.9165C106.966 99.7609 106.607 101.856 105.994 103.742C105.382 105.629 104.523 107.458 104.258 109.426C103.736 113.359 105.734 117.301 108.625 120.021C109.562 120.903 110.602 121.696 111.362 122.73C112.127 123.767 112.584 125.137 112.162 126.352C111.467 128.358 108.969 128.897 107.059 129.829C105.837 130.423 104.723 131.321 104.108 132.534C103.493 133.746 103.455 135.291 104.22 136.413C105.848 138.797 109.903 138.172 111.698 140.432C112.845 141.873 112.625 143.924 113.012 145.725C113.321 147.16 114.052 148.503 115.098 149.541C115.959 150.398 117.479 150.999 118.297 150.1C118.943 149.391 118.648 148.274 118.316 147.374C117.754 145.839 117.188 144.305 116.626 142.77C116.121 141.392 115.612 139.87 116.123 138.496C116.548 137.346 117.618 136.541 118.753 136.079C119.889 135.616 121.115 135.429 122.299 135.109C125.787 134.168 128.943 132.028 131.099 129.131C131.544 128.534 131.958 127.886 132.103 127.155C132.389 125.72 131.56 124.242 130.389 123.367C129.218 122.492 127.76 122.108 126.326 121.803C123.72 121.248 121.059 120.899 118.538 120.032C116.017 119.166 113.595 117.707 112.179 115.448C111.72 114.716 111.378 113.917 111.108 113.095C109.584 108.457 110.492 103.094 113.461 99.2185" fill="#F8E2CA"/>
<path d="M141.457 148.391C141.5 147.219 141.955 146.106 142.409 145.026C143.62 142.15 145.11 139.062 147.946 137.753C147.956 137.75 147.963 137.748 147.972 137.741C149.433 137.075 151.13 137.133 152.595 137.799C154.025 138.45 155.337 139.356 156.436 140.479C157.651 141.719 158.642 143.583 157.869 145.138C157.531 145.814 156.912 146.309 156.532 146.96C155.005 149.584 158.004 152.945 157.058 155.828C156.905 156.284 156.645 156.73 155.954 156.749C155.459 156.758 154.981 156.527 154.657 156.153C154.037 155.434 153.92 154.455 153.539 153.601C152.825 152.001 151.102 150.907 149.352 150.941C148.238 150.961 147.18 151.396 146.1 151.668C145.021 151.941 143.803 152.036 142.857 151.446C141.862 150.822 141.418 149.565 141.465 148.392L141.457 148.391Z" fill="#F8E2CA"/>
<path d="M106.639 101.756C106.865 100.033 105.722 98.4143 104.37 97.3224C103.022 96.2295 101.421 95.4636 100.155 94.2737C99.5058 93.6649 98.9235 92.8629 98.9621 91.974C99.0351 90.3849 100.926 89.5723 102.517 89.4723C104.104 89.3734 105.878 89.5455 107.1 88.5238C108.591 87.275 108.42 84.8974 107.63 83.1153C107.076 81.8662 106.279 80.4762 106.846 79.2334C107.191 78.4728 107.988 78.0046 108.794 77.7921C110.512 77.3337 112.338 77.8265 113.98 78.5084C115.622 79.1903 117.203 80.0678 118.939 80.4314C119.805 80.612 120.732 80.6761 121.478 81.1532C121.99 81.4827 122.372 81.9808 122.674 82.5114C123.746 84.3807 123.942 86.6829 123.42 88.7731C122.898 90.8632 121.697 92.7476 120.187 94.2833C118.753 95.7388 115.085 97.4033 113.715 98.9176C111.452 101.417 110.494 104.24 110.544 106.281" fill="#F8E2CA"/>
<path d="M116.718 76.5637C117.093 76.041 117.932 75.9454 118.655 76.0287C119.534 76.1305 120.416 76.4334 121.086 77.0166C121.755 77.5929 122.187 78.4761 122.142 79.3705C122.109 79.943 121.896 80.4932 121.655 81.0001C120.955 82.5018 120.026 83.881 118.655 84.6911C117.943 85.1098 117.062 85.3686 116.229 85.1252C115.713 84.9764 115.266 84.6491 114.861 84.3043C113.755 83.3602 112.86 82.1731 112.417 80.9077C111.974 79.6344 112.005 78.3024 112.63 77.2888C112.911 76.8369 113.307 76.4423 113.877 76.2404C114.441 76.0442 115.181 76.0735 115.698 76.4427" fill="#B83523"/>
<path d="M114.721 76.1359C114.544 76.5624 114.803 77.0765 115.327 77.2864C115.845 77.494 116.425 77.3003 116.621 76.8413C116.803 76.3832 116.529 75.8587 115.997 75.678C115.468 75.4996 114.898 75.7093 114.721 76.1359Z" fill="#B83523"/>
<path d="M113.053 76.039C112.87 76.4451 113.146 76.9391 113.654 77.1499C114.169 77.3586 114.747 77.1806 114.932 76.7475C115.125 76.3121 114.832 75.8088 114.31 75.6283C113.785 75.4488 113.222 75.6338 113.049 76.0367L113.053 76.039Z" fill="#B83523"/>
<path d="M112.083 76.8128C111.918 77.1571 112.143 77.5881 112.578 77.7773C113.015 77.9655 113.515 77.8269 113.681 77.4635C113.855 77.0979 113.621 76.6656 113.174 76.4954C112.724 76.3262 112.25 76.4641 112.082 76.8094L112.083 76.8128Z" fill="#B83523"/>
<path d="M111.434 77.9503C111.203 78.4087 111.467 78.9963 112.038 79.2624C112.605 79.5296 113.264 79.3598 113.511 78.8734C113.746 78.3913 113.473 77.799 112.891 77.5587C112.313 77.3173 111.664 77.4918 111.433 77.9469L111.434 77.9503Z" fill="#B83523"/>
<path d="M111.682 79.4193C111.506 79.752 111.689 80.1778 112.085 80.3754C112.484 80.572 112.955 80.4499 113.132 80.1092C113.313 79.7675 113.129 79.3384 112.722 79.1518C112.316 78.9687 111.857 79.0831 111.681 79.4159L111.682 79.4193Z" fill="#B83523"/>
<path d="M111.895 80.7724C111.689 81.1555 111.877 81.6548 112.323 81.8815C112.769 82.1083 113.307 81.9726 113.518 81.5839C113.728 81.1918 113.534 80.6947 113.083 80.4769C112.632 80.2591 112.105 80.3916 111.896 80.7758L111.895 80.7724Z" fill="#B83523"/>
<path d="M112.662 81.9618C112.396 82.4502 112.624 83.0903 113.184 83.3822C113.745 83.6742 114.421 83.5024 114.697 82.9995C114.97 82.4977 114.732 81.8608 114.167 81.5778C113.6 81.2993 112.934 81.4679 112.661 81.9584L112.662 81.9618Z" fill="#B83523"/>
<path d="M113.911 83.3933C113.706 83.7651 113.876 84.2472 114.293 84.4644C114.71 84.6816 115.217 84.5556 115.425 84.1793C115.632 83.803 115.462 83.3209 115.038 83.1059C114.618 82.8897 114.115 83.0181 113.908 83.3944L113.911 83.3933Z" fill="#B83523"/>
<path d="M115.101 84.4949C114.903 84.8533 115.063 85.316 115.462 85.5238C115.862 85.7351 116.348 85.6121 116.549 85.2493C116.75 84.8898 116.585 84.4248 116.186 84.2169C115.787 84.009 115.301 84.132 115.104 84.4938L115.101 84.4949Z" fill="#B83523"/>
<path d="M116.354 84.2276C116.084 84.7249 116.305 85.3559 116.852 85.6409C117.398 85.9258 118.062 85.7617 118.339 85.2588C118.613 84.7605 118.391 84.1148 117.841 83.8343C117.291 83.5505 116.629 83.7327 116.358 84.2266L116.354 84.2276Z" fill="#B83523"/>
<path d="M118.066 83.9771C117.863 84.3557 118.03 84.8276 118.438 85.0401C118.846 85.2527 119.346 85.1254 119.548 84.7433C119.754 84.3636 119.587 83.8805 119.177 83.6724C118.766 83.4644 118.271 83.6053 118.067 83.9805L118.066 83.9771Z" fill="#B83523"/>
<path d="M119.157 82.8131C118.955 83.1951 119.126 83.6772 119.536 83.8852C119.947 84.0967 120.445 83.9513 120.648 83.5614C120.851 83.1714 120.68 82.6746 120.265 82.4756C119.849 82.2731 119.354 82.4253 119.157 82.8131Z" fill="#B83523"/>
<path d="M119.896 81.4115C119.642 81.9374 119.87 82.5662 120.413 82.8375C120.954 83.1054 121.619 82.9074 121.879 82.3647C122.143 81.8243 121.905 81.1648 121.35 80.9125C120.795 80.6602 120.149 80.8936 119.893 81.4126L119.896 81.4115Z" fill="#B83523"/>
<path d="M120.684 80.0355C120.429 80.5806 120.681 81.2392 121.24 81.5017C121.8 81.7711 122.468 81.5347 122.732 80.957C122.992 80.3804 122.733 79.6979 122.163 79.4612C121.593 79.2211 120.93 79.4824 120.684 80.0355Z" fill="#B83523"/>
<path d="M120.848 78.474C120.61 79.0622 120.876 79.7279 121.465 79.992C122.053 80.2528 122.745 79.9897 123 79.3701C123.256 78.7539 122.965 78.0437 122.36 77.8143C121.756 77.5849 121.093 77.8948 120.845 78.475L120.848 78.474Z" fill="#B83523"/>
<path d="M120.367 77.0633C120.195 77.5182 120.429 78.033 120.888 78.2181C121.351 78.4056 121.885 78.1851 122.063 77.702C122.249 77.2237 121.998 76.6882 121.526 76.5221C121.051 76.3571 120.546 76.6097 120.366 77.0599L120.367 77.0633Z" fill="#B83523"/>
<path d="M119.088 76.2858C118.944 76.6869 119.156 77.1335 119.583 77.2989C120.008 77.4608 120.481 77.2596 120.642 76.8419C120.792 76.416 120.56 75.9533 120.13 75.8116C119.699 75.6699 119.231 75.8847 119.088 76.2858Z" fill="#B83523"/>
<path d="M117.283 75.8012C117.096 76.3022 117.385 76.8744 117.953 77.0964C118.517 77.3161 119.145 77.0621 119.351 76.5253C119.543 75.9814 119.236 75.3886 118.655 75.2082C118.078 75.0301 117.471 75.3037 117.281 75.8057L117.283 75.8012Z" fill="#B83523"/>
<path d="M115.651 76.1876C115.456 76.6839 115.742 77.2719 116.334 77.509C116.917 77.7448 117.579 77.514 117.796 76.9773C118.013 76.4407 117.694 75.8329 117.089 75.6375C116.488 75.4409 115.859 75.6915 115.651 76.1876Z" fill="#B83523"/>
<g style="mix-blend-mode:screen" opacity="0.25">
<path d="M121.39 79.6112C120.606 79.2737 121.106 78.0557 121.91 78.3721C122.713 78.6963 122.189 79.9704 121.39 79.6112Z" fill="#B83523"/>
<path d="M120.603 82.2417C119.829 81.8636 120.392 80.7123 121.173 81.0655C121.961 81.4359 121.379 82.6231 120.603 82.2417Z" fill="#B83523"/>
<path d="M118.282 84.5685C117.517 84.1725 118.103 83.0815 118.873 83.4685C119.642 83.8633 119.049 84.9679 118.282 84.5685Z" fill="#B83523"/>
<path d="M116.582 85.1639C115.819 84.7635 116.407 83.6939 117.172 84.0865C117.937 84.4824 117.346 85.5678 116.582 85.1639Z" fill="#B83523"/>
<path d="M114.82 83.9239C114.058 83.5269 114.635 82.4685 115.402 82.8565C116.169 83.248 115.583 84.3244 114.82 83.9239Z" fill="#B83523"/>
<path d="M118.587 82.6668C117.817 82.2798 118.383 81.176 119.158 81.5427C119.94 81.9186 119.358 83.0572 118.587 82.6668Z" fill="#B83523"/>
<path d="M119.451 80.319C118.672 79.9647 119.192 78.8194 119.982 79.1513C120.38 79.3185 120.446 79.7061 120.311 80.0034C120.175 80.2972 119.841 80.4996 119.448 80.3201L119.451 80.319Z" fill="#B83523"/>
<path d="M120.243 76.6002L120.286 76.6167C120.62 76.7364 120.823 77.1332 120.683 77.462C120.543 77.7908 120.171 77.9643 119.82 77.8273L119.778 77.8108C119.457 77.6834 119.246 77.2888 119.387 76.9747C119.528 76.6605 119.889 76.4756 120.243 76.6002Z" fill="#B83523"/>
<path d="M117.26 78.3598C116.477 78.0257 116.936 76.937 117.744 77.241C118.549 77.5495 118.062 78.7033 117.26 78.3598Z" fill="#B83523"/>
<path d="M117.306 80.2526C116.529 79.8904 117.047 78.8016 117.836 79.1414C118.626 79.4847 118.09 80.624 117.306 80.2526Z" fill="#B83523"/>
<path d="M116.546 82.7062C115.779 82.3181 116.344 81.2447 117.117 81.616C117.896 81.9963 117.317 83.0966 116.546 82.7062Z" fill="#B83523"/>
</g>
<path d="M117.446 76.1171C117.549 75.1592 117.646 74.1922 117.488 73.1926C117.4 72.6961 117.248 72.2042 117.023 71.7506C116.816 71.295 116.521 70.882 116.239 70.4987C115.803 70.7559 115.366 70.9984 114.935 71.224C115.264 71.529 115.562 71.8584 115.824 72.2143C116.067 72.5687 116.296 72.95 116.437 73.3627C116.745 74.1873 116.824 75.129 116.9 76.083L117.451 76.1194L117.446 76.1171Z" fill="#219653"/>
<path d="M117.366 76.5995C117.853 76.3861 118.193 76.0956 118.477 75.7738C118.766 75.4542 118.979 75.095 119.144 74.7134C119.313 74.3342 119.401 73.9243 119.447 73.4978C119.461 73.0663 119.454 72.6186 119.244 72.1302C118.809 72.436 118.5 72.7654 118.247 73.1036C118.005 73.442 117.788 73.7877 117.648 74.1504C117.488 74.5117 117.385 74.8886 117.323 75.2865C117.266 75.6868 117.255 76.106 117.366 76.5995Z" fill="#219653"/>
<path d="M117.41 76.6567C117.377 76.2063 117.234 75.8615 117.058 75.55C116.878 75.2429 116.664 74.9771 116.403 74.7445C116.142 74.5118 115.849 74.3159 115.512 74.152C115.169 73.9903 114.794 73.8574 114.295 73.7971C114.302 74.1883 114.448 74.5094 114.608 74.815C114.778 75.1174 115.003 75.3913 115.268 75.6376C115.526 75.886 115.831 76.1048 116.177 76.288C116.529 76.4657 116.918 76.6169 117.413 76.6557L117.41 76.6567Z" fill="#219653"/>
<path d="M117.621 76.5529C118.095 76.7145 118.51 76.7339 118.902 76.7077C119.293 76.6746 119.664 76.5802 120.001 76.4254C120.343 76.2729 120.662 76.0601 120.947 75.7755C121.215 75.485 121.486 75.1335 121.593 74.6278C121.098 74.5777 120.711 74.6096 120.33 74.6846C119.953 74.762 119.604 74.8793 119.279 75.0378C118.955 75.1962 118.656 75.3913 118.368 75.6284C118.084 75.8711 117.831 76.1495 117.621 76.5529Z" fill="#219653"/>
<path d="M107.716 126.025C107.244 125.477 107.399 124.626 107.709 123.966C108.085 123.162 108.662 122.437 109.406 121.967C110.154 121.499 111.067 121.306 111.872 121.539C112.394 121.686 112.846 122.004 113.28 122.325C114.555 123.268 115.789 124.356 116.499 125.826C116.865 126.584 117.083 127.5 116.778 128.316C116.587 128.818 116.216 129.235 115.822 129.599C114.741 130.594 113.392 131.342 111.918 131.54C110.444 131.738 108.845 131.346 107.713 130.357C107.213 129.923 106.805 129.354 106.687 128.717C106.571 128.075 106.794 127.357 107.332 126.993" fill="#B83523"/>
<path d="M106.755 127.826C107.209 128.174 107.856 128.086 108.191 127.64C108.53 127.192 108.438 126.554 107.99 126.216C107.545 125.873 106.909 125.957 106.563 126.395C106.219 126.837 106.301 127.478 106.755 127.826Z" fill="#B83523"/>
<path d="M106.273 129.45C106.734 129.796 107.38 129.716 107.714 129.266C108.049 128.82 107.95 128.184 107.498 127.843C107.047 127.506 106.407 127.58 106.067 128.02C105.725 128.458 105.815 129.1 106.272 129.447L106.273 129.45Z" fill="#B83523"/>
<path d="M107.051 130.73C107.451 131.024 108.008 130.95 108.292 130.564C108.575 130.179 108.483 129.635 108.091 129.343C107.697 129.055 107.145 129.123 106.856 129.503C106.567 129.882 106.652 130.436 107.051 130.73Z" fill="#B83523"/>
<path d="M108.354 131.785C108.886 132.168 109.619 132.057 109.986 131.545C110.35 131.033 110.221 130.313 109.696 129.943C109.176 129.567 108.449 129.672 108.075 130.175C107.698 130.68 107.821 131.402 108.354 131.785Z" fill="#B83523"/>
<path d="M110.14 131.949C110.519 132.212 111.032 132.129 111.285 131.765C111.537 131.401 111.442 130.895 111.067 130.635C110.694 130.378 110.187 130.455 109.926 130.818C109.668 131.176 109.758 131.688 110.137 131.951L110.14 131.949Z" fill="#B83523"/>
<path d="M111.726 132.035C112.151 132.328 112.732 132.22 113.01 131.806C113.29 131.388 113.173 130.826 112.753 130.539C112.333 130.251 111.762 130.352 111.476 130.765C111.186 131.178 111.297 131.746 111.726 132.035Z" fill="#B83523"/>
<path d="M113.124 131.478C113.657 131.839 114.38 131.697 114.727 131.168C115.074 130.64 114.926 129.933 114.4 129.582C113.877 129.229 113.166 129.363 112.806 129.885C112.449 130.406 112.585 131.123 113.12 131.479L113.124 131.478Z" fill="#B83523"/>
<path d="M114.779 130.429C115.176 130.69 115.707 130.579 115.964 130.183C116.222 129.787 116.109 129.261 115.72 129.001C115.328 128.746 114.803 128.851 114.54 129.241C114.277 129.632 114.382 130.168 114.778 130.425L114.779 130.429Z" fill="#B83523"/>
<path d="M116.039 129.373C116.416 129.618 116.917 129.508 117.16 129.125C117.403 128.745 117.297 128.239 116.929 127.999C116.558 127.76 116.062 127.863 115.814 128.241C115.565 128.619 115.664 129.124 116.042 129.372L116.039 129.373Z" fill="#B83523"/>
<path d="M115.831 128.071C116.338 128.409 117.025 128.257 117.359 127.736C117.693 127.215 117.553 126.532 117.059 126.2C116.563 125.873 115.888 126.015 115.544 126.528C115.199 127.041 115.325 127.736 115.834 128.07L115.831 128.071Z" fill="#B83523"/>
<path d="M115.708 126.322C116.08 126.576 116.585 126.466 116.838 126.079C117.091 125.692 116.994 125.183 116.631 124.934C116.268 124.685 115.763 124.795 115.504 125.176C115.246 125.557 115.333 126.073 115.704 126.323L115.708 126.322Z" fill="#B83523"/>
<path d="M114.637 125.075C115.003 125.331 115.51 125.227 115.767 124.843C116.025 124.462 115.938 123.946 115.578 123.696C115.218 123.446 114.717 123.543 114.454 123.922C114.191 124.301 114.271 124.815 114.636 125.071L114.637 125.075Z" fill="#B83523"/>
<path d="M113.347 124.117C113.823 124.462 114.493 124.33 114.837 123.828C115.181 123.326 115.078 122.654 114.612 122.318C114.147 121.981 113.486 122.107 113.131 122.6C112.777 123.094 112.869 123.777 113.347 124.117Z" fill="#B83523"/>
<path d="M112.15 123.089C112.629 123.444 113.313 123.322 113.67 122.813C114.028 122.307 113.934 121.617 113.465 121.27C112.996 120.923 112.325 121.041 111.954 121.54C111.586 122.038 111.67 122.731 112.15 123.089Z" fill="#B83523"/>
<path d="M110.705 122.581C111.198 122.958 111.91 122.839 112.289 122.318C112.669 121.798 112.578 121.081 112.099 120.715C111.616 120.346 110.918 120.461 110.527 120.97C110.137 121.479 110.216 122.207 110.708 122.58L110.705 122.581Z" fill="#B83523"/>
<path d="M109.228 122.664C109.611 122.963 110.17 122.881 110.47 122.479C110.771 122.077 110.703 121.518 110.33 121.223C109.953 120.93 109.401 121.01 109.095 121.406C108.787 121.799 108.846 122.365 109.228 122.664Z" fill="#B83523"/>
<path d="M108.091 123.644C108.44 123.92 108.953 123.848 109.229 123.488C109.506 123.127 109.445 122.614 109.098 122.345C108.753 122.072 108.247 122.141 107.966 122.499C107.686 122.857 107.742 123.368 108.092 123.647L108.091 123.644Z" fill="#B83523"/>
<path d="M107.06 125.201C107.537 125.575 108.224 125.483 108.589 125.001C108.954 124.519 108.869 123.833 108.403 123.471C107.939 123.103 107.259 123.194 106.883 123.664C106.508 124.139 106.582 124.827 107.06 125.201Z" fill="#B83523"/>
<path d="M107.034 126.929C107.54 127.32 108.265 127.22 108.642 126.715C109.022 126.209 108.921 125.496 108.427 125.115C107.932 124.735 107.219 124.825 106.828 125.323C106.438 125.82 106.527 126.542 107.034 126.929Z" fill="#B83523"/>
<g style="mix-blend-mode:screen" opacity="0.25">
<path d="M111.909 122.314C111.398 123.011 110.368 122.226 110.89 121.541C111.408 120.853 112.418 121.622 111.909 122.314Z" fill="#B83523"/>
<path d="M114.278 123.554C113.785 124.26 112.735 123.508 113.243 122.801C113.743 122.104 114.77 122.845 114.278 123.554Z" fill="#B83523"/>
<path d="M116.337 126.18C115.863 126.899 114.778 126.165 115.268 125.449C115.749 124.74 116.811 125.458 116.337 126.18Z" fill="#B83523"/>
<path d="M116.837 127.956C116.368 128.681 115.262 127.954 115.744 127.233C116.222 126.516 117.302 127.233 116.837 127.956Z" fill="#B83523"/>
<path d="M115.408 129.583C114.935 130.305 113.811 129.557 114.298 128.842C114.778 128.129 115.878 128.862 115.408 129.583Z" fill="#B83523"/>
<path d="M114.415 125.62C113.927 126.332 112.854 125.576 113.355 124.871C113.85 124.169 114.903 124.909 114.415 125.62Z" fill="#B83523"/>
<path d="M112.184 124.352C111.678 125.055 110.623 124.274 111.139 123.58C111.649 122.891 112.684 123.655 112.184 124.352Z" fill="#B83523"/>
<path d="M108.75 122.646L108.777 122.611C108.989 122.334 109.432 122.251 109.698 122.478C109.964 122.706 110.032 123.111 109.808 123.41L109.781 123.445C109.57 123.725 109.127 123.808 108.857 123.579C108.586 123.349 108.521 122.942 108.75 122.646Z" fill="#B83523"/>
<path d="M109.747 126.049C109.231 126.743 108.16 125.934 108.685 125.248C109.208 124.562 110.259 125.355 109.747 126.049Z" fill="#B83523"/>
<path d="M111.743 126.462C111.24 127.163 110.162 126.379 110.673 125.682C111.182 124.99 112.24 125.758 111.743 126.462Z" fill="#B83523"/>
<path d="M114.235 127.666C113.749 128.382 112.651 127.622 113.152 126.914C113.641 126.209 114.719 126.952 114.235 127.666Z" fill="#B83523"/>
</g>
<path d="M107.433 125.162C106.46 124.712 105.502 124.216 104.409 123.863C103.866 123.685 103.293 123.566 102.723 123.483C102.148 123.406 101.581 123.367 101.013 123.347L101.117 124.963C102.157 124.826 103.16 124.762 104.166 124.913C105.173 125.064 106.204 125.388 107.244 125.679L107.437 125.161L107.433 125.162Z" fill="#219653"/>
<path d="M107.919 125.407C107.823 124.864 107.621 124.436 107.392 124.044C107.154 123.658 106.881 123.313 106.573 123.013C106.26 122.71 105.918 122.443 105.526 122.222C105.134 122.001 104.706 121.821 104.165 121.744C104.233 122.292 104.418 122.725 104.641 123.123C104.867 123.52 105.144 123.864 105.458 124.173C105.775 124.478 106.129 124.745 106.528 124.964C106.932 125.178 107.37 125.354 107.919 125.407Z" fill="#219653"/>
<path d="M107.994 125.383C107.511 125.265 107.109 125.275 106.727 125.321C106.346 125.373 105.992 125.474 105.658 125.616C105.324 125.759 105.008 125.944 104.71 126.188C104.413 126.435 104.129 126.723 103.89 127.166C104.364 127.361 104.785 127.401 105.189 127.375C105.592 127.346 105.967 127.254 106.316 127.099C106.664 126.944 106.988 126.734 107.276 126.459C107.56 126.183 107.82 125.854 107.991 125.387L107.994 125.383Z" fill="#219653"/>
<path d="M107.941 125.145C108.237 124.741 108.368 124.347 108.453 123.961C108.529 123.574 108.545 123.194 108.509 122.819C108.47 122.446 108.374 122.079 108.216 121.72C108.047 121.365 107.829 121.003 107.433 120.723C107.192 121.159 107.065 121.528 106.99 121.908C106.917 122.283 106.901 122.651 106.942 123.017C106.978 123.384 107.066 123.746 107.218 124.099C107.375 124.454 107.581 124.809 107.946 125.147L107.941 125.145Z" fill="#219653"/>
<path d="M153.775 134.872C154.915 135.435 155.563 136.276 155.792 137.197C156.021 138.114 155.833 139.11 155.338 139.929C154.846 140.747 154.052 141.39 153.101 141.63C152.15 141.873 151.048 141.714 149.917 141.003C148.739 140.261 148.127 139.341 147.911 138.438C147.697 137.535 147.884 136.641 148.353 135.905C148.82 135.174 149.574 134.595 150.512 134.349C151.447 134.106 152.577 134.197 153.775 134.872Z" fill="#B83523"/>
<path d="M150.971 135.141C151.202 135.053 151.454 134.996 151.706 135.037C151.801 135.052 151.896 135.082 151.986 135.117C152.011 134.993 152.047 134.869 152.096 134.753C152.246 134.395 152.497 134.087 152.802 133.841C152.847 133.804 152.896 133.77 152.946 133.739C153.318 134.289 153.512 134.951 153.494 135.609C153.766 135.606 154.044 135.668 154.299 135.775C154.562 135.883 154.801 136.037 155.033 136.203C154.991 136.247 154.944 136.288 154.901 136.331C154.713 136.506 154.521 136.683 154.292 136.8C154.077 136.913 153.831 136.964 153.588 136.954C153.584 137.465 153.417 137.971 153.13 138.391C152.831 138.264 152.593 138.009 152.41 137.737C152.236 137.481 152.096 137.203 151.99 136.914C151.967 136.839 151.941 136.757 151.926 136.676C151.511 136.679 151.095 136.559 150.755 136.322C150.504 136.146 150.305 135.905 150.18 135.641C150.406 135.427 150.673 135.253 150.971 135.141Z" fill="#B83523"/>
<g style="mix-blend-mode:overlay" opacity="0.42">
<path d="M150.971 135.141C151.202 135.053 151.454 134.996 151.706 135.037C151.801 135.052 151.896 135.082 151.986 135.117C152.011 134.993 152.047 134.869 152.096 134.753C152.246 134.395 152.497 134.087 152.802 133.841C152.847 133.804 152.896 133.77 152.946 133.739C153.318 134.289 153.512 134.951 153.494 135.609C153.766 135.606 154.044 135.668 154.299 135.775C154.562 135.883 154.801 136.037 155.033 136.203C154.991 136.247 154.944 136.288 154.901 136.331C154.713 136.506 154.521 136.683 154.292 136.8C154.077 136.913 153.831 136.964 153.588 136.954C153.584 137.465 153.417 137.971 153.13 138.391C152.831 138.264 152.593 138.009 152.41 137.737C152.236 137.481 152.096 137.203 151.99 136.914C151.967 136.839 151.941 136.757 151.926 136.676C151.511 136.679 151.095 136.559 150.755 136.322C150.504 136.146 150.305 135.905 150.18 135.641C150.406 135.427 150.673 135.253 150.971 135.141Z" fill="#F8E2CA"/>
</g>
<path d="M152.881 135.626C153.065 135.722 153.253 135.82 153.387 135.972C153.522 136.128 153.584 136.36 153.49 136.536C153.422 136.666 153.275 136.746 153.126 136.762C152.978 136.779 152.828 136.744 152.69 136.686C152.366 136.549 152.093 136.29 151.947 135.98C151.915 135.915 151.889 135.844 151.89 135.773C151.894 135.633 152.012 135.521 152.151 135.485C152.289 135.449 152.439 135.484 152.57 135.544L152.88 135.622L152.881 135.626Z" fill="#1B334D"/>
<g style="mix-blend-mode:multiply" opacity="0.25">
<path d="M149.466 139.073C150.917 140.358 153.109 141.088 154.454 139.218C154.558 139.073 154.845 139.151 154.836 139.338C154.791 140.671 153.24 141.193 152.126 141.105C150.923 141.023 149.637 140.375 149.248 139.201C149.209 139.075 149.362 138.978 149.465 139.069L149.466 139.073Z" fill="#B83523"/>
<path d="M148.363 137.925L148.368 137.905C148.404 137.792 148.462 137.692 148.594 137.658C148.684 137.636 148.775 137.638 148.863 137.681C148.947 137.722 149.016 137.798 149.05 137.881C149.097 138.008 149.058 138.111 148.989 138.211L148.979 138.226C148.94 138.283 148.856 138.313 148.788 138.323C148.717 138.334 148.632 138.327 148.564 138.289C148.509 138.257 148.462 138.216 148.425 138.168C148.379 138.107 148.343 137.991 148.365 137.92L148.363 137.925Z" fill="#B83523"/>
</g>
<path d="M99.2473 92.9633C100.292 94.2941 101.382 95.2437 102.828 96.1257C103.982 96.8266 105.17 97.4602 106.1 98.4602C107.581 100.058 108.134 102.042 107.585 104.13C107.56 104.227 107.404 104.22 107.4 104.113C107.291 100.663 105.728 98.4947 102.88 96.694C101.397 95.7559 99.687 94.7881 99.147 93.0136C99.1277 92.9522 99.2074 92.9196 99.245 92.9677L99.2473 92.9633Z" fill="#1B334D"/>
<path d="M118.042 149.978C116.428 152.064 113.725 149.288 113.019 147.723C112.313 146.158 112.254 144.341 111.823 142.663C111.174 140.125 109.608 138.947 107.31 137.921C107.175 137.859 107.26 137.656 107.397 137.684C109.816 138.132 111.431 139.205 112.253 141.625C113.127 144.186 113.296 151.757 117.975 149.887C118.032 149.865 118.067 149.94 118.035 149.98L118.042 149.978Z" fill="#1B334D"/>
<path d="M148.944 151.264C150.032 150.603 151.572 151.365 152.423 152.139C154.082 153.648 154.058 157.143 157.034 156.431C157.086 156.418 157.16 156.451 157.155 156.517C157.012 158.146 154.893 157.176 154.245 156.425C153.402 155.45 153.133 154.119 152.362 153.099C151.424 151.858 150.222 151.944 148.948 151.383C148.901 151.364 148.901 151.292 148.941 151.265L148.944 151.264Z" fill="#1B334D"/>
<path d="M135.609 155.249C134.46 155.775 133.122 155.822 131.893 156.108C130.511 156.43 129.265 156.984 127.936 157.462C125.745 158.25 123.322 158.207 121.043 157.868C120.755 157.824 120.797 157.35 121.092 157.358C122.394 157.39 123.694 157.554 125.001 157.469C126.55 157.367 127.86 156.853 129.291 156.316C131.135 155.627 133.623 154.878 135.609 155.177C135.649 155.184 135.641 155.231 135.611 155.244L135.609 155.249Z" fill="#1B334D"/>
<path d="M112.176 156.827C111.577 157.315 110.282 156.606 109.636 156.386C108.612 156.038 107.532 155.678 106.595 155.13C106.31 154.961 106.457 154.428 106.809 154.549C107.921 154.926 108.98 155.446 110.088 155.836C110.678 156.043 111.941 156.151 112.181 156.806C112.184 156.817 112.18 156.826 112.173 156.828L112.176 156.827Z" fill="#1B334D"/>
<path d="M150.164 105.826C150.944 108.35 150.389 111.409 149.549 113.858C148.779 116.101 147.475 118.932 145.355 120.184C145.28 120.23 145.183 120.148 145.225 120.067C146.399 117.847 148.039 116.094 148.897 113.666C149.813 111.077 149.763 108.564 149.917 105.874C149.924 105.741 150.117 105.688 150.162 105.831L150.164 105.826Z" fill="#1B334D"/>
<path d="M134.634 130.041C133.822 131.211 132.282 132.115 130.966 132.601C130.886 132.63 130.822 132.523 130.877 132.46C131.807 131.441 133.188 130.305 134.532 129.92C134.597 129.899 134.677 129.975 134.634 130.041Z" fill="#1B334D"/>
<path d="M125.807 103.743C125.927 105.016 124.517 105.835 123.628 106.519C121.975 107.793 120.007 109.36 117.918 109.756C117.851 109.769 117.773 109.689 117.836 109.628C119.041 108.529 120.607 107.86 121.96 106.947C123.314 106.034 124.602 104.973 125.743 103.718C125.765 103.692 125.804 103.71 125.807 103.743Z" fill="#1B334D"/>
<path d="M97.386 110.375C95.9788 110.309 94.6407 109.355 93.5572 108.52C92.4737 107.685 90.9144 106.373 90.5424 104.966C90.4998 104.807 90.6814 104.693 90.8074 104.796C91.9273 105.687 92.6614 107.007 93.8011 107.926C94.9409 108.845 96.3242 109.323 97.4441 110.215C97.5043 110.263 97.4651 110.377 97.385 110.372L97.386 110.375Z" fill="#1B334D"/>
<path d="M43.6155 88.8159C44.1836 89.9896 43.5576 91.3331 44.7085 92.3945C46.3569 93.9174 47.6819 92.1402 49.0685 91.3439C50.4551 90.5477 51.9576 90.5954 53.0782 91.8462C54.9389 93.9242 53.5283 98.4522 56.6243 99.3844C58.4338 99.9312 60.3022 98.9758 61.7966 100.521C61.9132 100.642 61.7821 100.844 61.6263 100.766C59.6254 99.7771 57.1569 101.195 55.2397 99.7941C54.295 99.1024 53.8424 97.9861 53.601 96.8744C53.1896 94.9845 53.092 90.819 49.9513 92.0177C48.2154 92.6803 46.7627 94.8612 44.7275 93.6211C43.4576 92.8483 41.9841 89.8578 43.5389 88.7988C43.5606 88.7844 43.6035 88.7897 43.6155 88.8159Z" fill="white"/>
<path d="M40.2271 107.114C41.5443 107.763 43.0945 110.973 44.9565 108.783C45.6102 108.015 45.6937 106.805 46.048 105.895C46.6008 104.474 47.6587 103.526 49.2687 103.701C51.9922 103.998 53.0008 107.213 55.5618 107.696C57.9674 108.148 59.2749 104.983 61.7867 105.297C61.9311 105.316 61.944 105.559 61.7999 105.589C59.3706 106.084 58.1445 109.247 55.3434 108.656C52.9399 108.15 49.1814 102.162 47.1174 105.888C46.2713 107.414 46.3918 109.736 44.3058 110.179C42.7961 110.501 39.5301 109.053 40.1451 107.151C40.157 107.117 40.1889 107.099 40.2237 107.115L40.2271 107.114Z" fill="white"/>
<path d="M187.549 120.132C186.253 119.454 184.827 116.283 182.872 118.33C182.234 118.996 182.105 120.119 181.791 120.945C181.222 122.443 180.157 123.535 178.429 123.307C175.707 122.943 174.79 119.71 172.245 119.147C169.848 118.617 168.451 121.758 165.951 121.376C165.809 121.353 165.793 121.111 165.938 121.084C168.377 120.654 169.688 117.536 172.463 118.187C174.834 118.744 178.493 124.842 180.62 121.186C181.441 119.774 181.421 117.554 183.285 117.001C184.826 116.542 188.319 118.129 187.629 120.1C187.617 120.133 187.586 120.154 187.55 120.136L187.549 120.132Z" fill="white"/>
<path d="M181.284 101.911C179.913 102.14 178.506 101.05 177.189 102.128C175.724 103.328 177.005 105.075 177.332 106.425C177.738 108.107 177.182 109.564 175.503 110.231C172.995 111.226 169.025 108.767 167.408 111.592C166.506 113.165 166.773 115.108 164.953 116.063C164.808 116.138 164.638 115.967 164.758 115.836C166.276 114.185 165.6 111.393 167.513 109.963C168.481 109.239 169.703 109.146 170.871 109.239C172.778 109.392 176.677 110.438 176.443 107.099C176.313 105.248 174.603 103.242 176.363 101.632C177.462 100.626 180.753 100.047 181.333 101.842C181.345 101.88 181.316 101.908 181.285 101.914L181.284 101.911Z" fill="white"/>
<path d="M131.27 47.434C126.222 53.4405 120.95 59.2557 115.464 64.857C114.258 66.0869 112.82 67.3977 111.106 67.2967C110.137 67.2421 109.256 66.7289 108.437 66.2077C106.462 64.9562 104.573 63.5762 102.774 62.0858C104.482 63.4628 106.27 64.7394 108.13 65.8996C106.269 64.736 104.482 63.4628 102.774 62.0858C101.085 60.6843 99.4793 59.1892 97.9699 57.5963C99.4782 59.1858 101.085 60.6843 102.774 62.0858C100.953 60.6211 99.2263 59.0403 97.6065 57.3585C96.9333 56.6601 96.2565 55.9028 96.0055 54.9627C95.563 53.3074 96.5469 51.6488 97.4975 50.2293C101.922 43.6359 106.549 37.1849 111.376 30.8842C118.566 35.6792 125.255 41.2277 131.269 47.4306L131.27 47.434Z" fill="#1B334D"/>
<path d="M69.7395 97.3795C75.7589 90.5799 83.6295 81.6277 89.1443 75.2605C92.5579 71.3232 95.9652 67.3655 98.9761 63.113C99.225 62.7611 99.4752 62.4014 99.6434 62.0075C99.6998 61.8773 99.745 61.747 99.7801 61.6085C100.11 60.3131 99.3514 59.1283 98.3551 58.1419L107.516 65.6283C106.353 64.8482 105.035 64.3412 103.832 64.9224C103.705 64.9847 103.582 65.0572 103.469 65.1379C103.119 65.3829 102.814 65.6999 102.516 66.0148C98.9331 69.8068 95.7019 73.9189 92.4687 78.0129C87.2377 84.6391 79.8057 93.9966 74.0946 101.085C72.6114 99.8847 71.1583 98.6487 69.7361 97.3805L69.7395 97.3795Z" fill="#1B334D"/>
<path d="M112.015 63.2938C114.645 60.6749 117.159 57.9501 119.647 55.2147C122.136 52.4792 124.619 49.7528 127.094 47.0329L125.1 45.2477C122.659 48.0506 120.324 50.9253 117.998 53.7969L111.023 62.3922L112.02 63.2961L112.015 63.2938Z" fill="white"/>
<path d="M108.843 59.7516C111.314 57.0103 113.734 54.2251 116.135 51.4238C118.535 48.6225 120.924 45.8096 123.268 42.9622L121.182 41.2884C118.916 44.1937 116.677 47.1243 114.445 50.0562C112.21 52.9891 109.985 55.9301 107.805 58.9058L108.847 59.754L108.843 59.7516Z" fill="white"/>
<path d="M104.989 57.0424C107.406 54.2583 109.771 51.4304 112.117 48.5863C114.459 45.7433 116.789 42.8889 119.081 40.0055L116.95 38.3874C114.744 41.3299 112.564 44.2943 110.389 47.2644C108.215 50.2345 106.049 53.2093 103.925 56.2198L104.988 57.039L104.989 57.0424Z" fill="white"/>
<path d="M100.812 54.0712L107.758 45.5115C110.067 42.6487 112.37 39.7655 114.569 36.7879L112.395 35.2279C110.308 38.2267 108.166 41.2052 106.028 44.194C103.886 47.1839 101.749 50.1908 99.7271 53.2777L100.812 54.0712Z" fill="white"/>
<path d="M82.6965 129.024C83.3499 127.934 84.1705 127.327 84.9781 127.084C85.7892 126.84 86.5919 126.962 87.2556 127.356C87.9192 127.751 88.446 128.424 88.6856 129.304C88.9252 130.184 88.8763 131.278 88.3281 132.5C87.7564 133.767 86.9304 134.499 86.0361 134.788C85.1417 135.077 84.1882 134.916 83.4208 134.442C82.6523 133.965 82.0698 133.174 81.8902 132.223C81.7095 131.268 81.9314 130.164 82.7009 129.027" fill="#B83523"/>
<path d="M82.6994 131.807C82.6265 131.575 82.5912 131.32 82.645 131.075C82.668 130.981 82.7024 130.888 82.7457 130.8C82.6286 130.773 82.514 130.73 82.4075 130.677C82.0825 130.514 81.8124 130.239 81.6188 129.922C81.5891 129.875 81.5617 129.824 81.5411 129.77C82.1071 129.45 82.7369 129.296 83.3365 129.332C83.3602 129.062 83.4473 128.792 83.5689 128.547C83.6952 128.294 83.8574 128.059 84.0306 127.836C84.0627 127.878 84.0948 127.921 84.1279 127.967C84.2605 128.15 84.3975 128.335 84.482 128.556C84.5598 128.767 84.5898 129.005 84.5632 129.242C85.0233 129.239 85.464 129.378 85.8327 129.633C85.7102 129.934 85.4698 130.182 85.2191 130.373C84.9764 130.554 84.7162 130.704 84.4431 130.812C84.3737 130.841 84.2942 130.863 84.216 130.876C84.2024 131.285 84.079 131.702 83.8405 132.04C83.6635 132.287 83.4228 132.486 83.1563 132.604C82.9499 132.376 82.7917 132.1 82.6973 131.8L82.6994 131.807Z" fill="#B83523"/>
<g style="mix-blend-mode:overlay" opacity="0.42">
<path d="M82.6994 131.807C82.6265 131.575 82.5912 131.32 82.645 131.075C82.668 130.981 82.7024 130.888 82.7457 130.8C82.6286 130.773 82.514 130.73 82.4075 130.677C82.0825 130.514 81.8124 130.239 81.6188 129.922C81.5891 129.875 81.5617 129.824 81.5411 129.77C82.1071 129.45 82.7369 129.296 83.3365 129.332C83.3602 129.062 83.4473 128.792 83.5689 128.547C83.6952 128.294 83.8574 128.059 84.0306 127.836C84.0627 127.878 84.0948 127.921 84.1279 127.967C84.2605 128.15 84.3975 128.335 84.482 128.556C84.5598 128.767 84.5898 129.005 84.5632 129.242C85.0233 129.239 85.464 129.378 85.8327 129.633C85.7102 129.934 85.4698 130.182 85.2191 130.373C84.9764 130.554 84.7162 130.704 84.4431 130.812C84.3737 130.841 84.2942 130.863 84.216 130.876C84.2024 131.285 84.079 131.702 83.8405 132.04C83.6635 132.287 83.4228 132.486 83.1563 132.604C82.9499 132.376 82.7917 132.1 82.6973 131.8L82.6994 131.807Z" fill="#F8E2CA"/>
</g>
<path d="M83.3006 129.932C83.4053 129.753 83.5123 129.569 83.6671 129.442C83.8218 129.314 84.0376 129.25 84.1898 129.341C84.3017 129.411 84.3638 129.548 84.3681 129.693C84.3759 129.837 84.3327 129.985 84.2716 130.124C84.125 130.444 83.873 130.714 83.5699 130.859C83.5084 130.889 83.4378 130.915 83.3724 130.91C83.2391 130.903 83.1372 130.781 83.1168 130.645C83.0954 130.506 83.1397 130.361 83.2074 130.231L83.3074 129.93L83.3006 129.932Z" fill="#1B334D"/>
<g style="mix-blend-mode:multiply" opacity="0.25">
<path d="M86.5352 133.184C87.675 131.604 88.1493 129.398 86.6128 128.278C86.4911 128.189 86.5738 127.905 86.7322 127.896C87.8513 127.821 88.2764 129.231 88.266 130.328C88.2463 131.503 87.7871 132.877 86.6766 133.384C86.5582 133.436 86.4498 133.294 86.5342 133.181L86.5352 133.184Z" fill="#B83523"/>
<path d="M85.4855 134.373L85.4653 134.368C85.3516 134.34 85.244 134.284 85.2009 134.159C85.173 134.07 85.1734 133.977 85.2088 133.887C85.2453 133.8 85.3166 133.729 85.3975 133.689C85.5183 133.632 85.6251 133.662 85.728 133.727L85.746 133.736C85.8019 133.771 85.839 133.853 85.8559 133.919C85.8706 133.989 85.8714 134.075 85.8409 134.145C85.8139 134.202 85.7769 134.251 85.731 134.296C85.6759 134.347 85.5587 134.391 85.4855 134.373Z" fill="#B83523"/>
</g>
<path d="M151.106 83.3272C152.246 83.8899 152.893 84.7315 153.123 85.652C153.352 86.569 153.163 87.565 152.668 88.3841C152.176 89.2021 151.382 89.8455 150.431 90.085C149.481 90.328 148.378 90.1694 147.247 89.4576C146.069 88.7157 145.458 87.7956 145.241 86.8934C145.028 85.9901 145.215 85.0958 145.683 84.36C146.15 83.6286 146.905 83.0501 147.842 82.8035C148.778 82.5615 149.908 82.6516 151.106 83.3272Z" fill="#B83523"/>
<path d="M148.298 83.5967C148.529 83.509 148.781 83.4522 149.034 83.4926C149.128 83.5077 149.224 83.5376 149.314 83.573C149.338 83.4491 149.374 83.3253 149.424 83.2086C149.573 82.8506 149.825 82.5428 150.13 82.297C150.174 82.2604 150.223 82.2262 150.274 82.1954C150.645 82.7453 150.839 83.4075 150.821 84.065C151.094 84.0616 151.372 84.1239 151.627 84.231C151.889 84.3394 152.128 84.4926 152.361 84.6593C152.318 84.7026 152.271 84.7437 152.229 84.787C152.04 84.9625 151.849 85.139 151.62 85.2561C151.404 85.3689 151.158 85.4202 150.915 85.4104C150.911 85.9213 150.744 86.4271 150.457 86.8472C150.158 86.7202 149.921 86.4653 149.738 86.1932C149.564 85.9371 149.423 85.659 149.318 85.3702C149.294 85.2952 149.268 85.2133 149.254 85.1317C148.839 85.135 148.423 85.015 148.082 84.7776C147.832 84.6016 147.636 84.3598 147.508 84.0966C147.733 83.8834 148 83.7092 148.298 83.5967Z" fill="#B83523"/>
<g style="mix-blend-mode:overlay" opacity="0.42">
<path d="M148.298 83.5967C148.529 83.509 148.781 83.4522 149.034 83.4926C149.128 83.5077 149.224 83.5376 149.314 83.573C149.338 83.4491 149.374 83.3253 149.424 83.2086C149.573 82.8506 149.825 82.5428 150.13 82.297C150.174 82.2604 150.223 82.2262 150.274 82.1954C150.645 82.7453 150.839 83.4075 150.821 84.065C151.094 84.0616 151.372 84.1239 151.627 84.231C151.889 84.3394 152.128 84.4926 152.361 84.6593C152.318 84.7026 152.271 84.7437 152.229 84.787C152.04 84.9625 151.849 85.139 151.62 85.2561C151.404 85.3689 151.158 85.4202 150.915 85.4104C150.911 85.9213 150.744 86.4271 150.457 86.8472C150.158 86.7202 149.921 86.4653 149.738 86.1932C149.564 85.9371 149.423 85.659 149.318 85.3702C149.294 85.2952 149.268 85.2133 149.254 85.1317C148.839 85.135 148.423 85.015 148.082 84.7776C147.832 84.6016 147.636 84.3598 147.508 84.0966C147.733 83.8834 148 83.7092 148.298 83.5967Z" fill="#F8E2CA"/>
</g>
<path d="M150.208 84.0819C150.392 84.1776 150.58 84.2757 150.714 84.4283C150.85 84.5843 150.911 84.8159 150.817 84.9918C150.749 85.1217 150.602 85.2018 150.454 85.2185C150.305 85.2353 150.156 85.2 150.017 85.1423C149.693 85.0046 149.421 84.7457 149.274 84.4359C149.243 84.3709 149.217 84.3004 149.217 84.2292C149.221 84.0891 149.34 83.9769 149.478 83.9408C149.617 83.9047 149.766 83.94 149.898 83.9998L150.207 84.0785L150.208 84.0819Z" fill="#1B334D"/>
<g style="mix-blend-mode:multiply" opacity="0.25">
<path d="M146.793 87.5286C148.244 88.8142 150.437 89.5437 151.781 87.6742C151.885 87.529 152.169 87.6083 152.163 87.7936C152.119 89.1265 150.567 89.6488 149.453 89.5612C148.251 89.4789 146.964 88.8312 146.575 87.6572C146.536 87.531 146.689 87.4341 146.792 87.5252L146.793 87.5286Z" fill="#B83523"/>
<path d="M145.69 86.381L145.695 86.3607C145.731 86.2483 145.789 86.1476 145.921 86.1136C146.012 86.0925 146.102 86.094 146.19 86.1373C146.275 86.1783 146.343 86.254 146.377 86.3371C146.425 86.4645 146.386 86.5667 146.316 86.6673L146.306 86.6818C146.267 86.7388 146.183 86.769 146.115 86.7792C146.044 86.7904 145.959 86.7834 145.891 86.7449C145.836 86.7135 145.789 86.672 145.752 86.6239C145.706 86.5633 145.67 86.4474 145.693 86.3765L145.69 86.381Z" fill="#B83523"/>
</g>
<path d="M145.169 58.7001C145.659 61.6255 145.355 64.4901 144.275 67.1756C144.965 66.4039 145.767 65.668 146.686 64.9928C146.756 64.9408 146.854 64.8837 146.983 64.9028C147.18 64.9309 147.228 65.0843 147.216 65.1892C146.944 67.4554 145.155 69.4724 142.221 70.8644C140.492 69.4418 139.221 67.8789 138.429 66.281C138.278 65.9801 138.147 65.6694 138.174 65.3759C138.184 65.2755 138.218 65.171 138.344 65.1053C138.537 65.0068 138.903 65.0378 139.172 65.1406C139.439 65.24 139.63 65.3935 139.797 65.5432C139.954 65.6849 140.099 65.8263 140.235 65.971C139.832 65.1313 139.509 64.285 139.338 63.4435C139.253 63.0205 139.203 62.598 139.351 62.2105C139.392 62.1039 139.464 61.9875 139.648 61.9522C139.863 61.9106 140.163 61.9958 140.343 62.1153C140.527 62.2336 140.618 62.3809 140.699 62.5202C141.467 63.8035 142.015 65.0921 142.342 66.3679C142.416 64.0216 142.585 61.6679 143.29 59.4565C143.436 59.0023 143.608 58.5508 144.059 58.2102C144.153 58.1394 144.278 58.0703 144.46 58.0768C144.891 58.0908 145.128 58.4507 145.171 58.6956L145.169 58.7001Z" fill="#219653"/>
<g style="mix-blend-mode:difference" opacity="0.15">
<path d="M142.015 69.1723C141.519 68.7514 141.298 68.2515 140.998 67.7876C140.649 67.2495 140.266 66.7141 139.96 66.1698C139.911 66.0842 140.127 66.046 140.204 66.1344C140.627 66.6342 140.965 67.1462 141.3 67.6514C141.628 68.1474 142.068 68.6646 142.124 69.1639C142.128 69.2002 142.048 69.1954 142.017 69.1678L142.015 69.1723Z" fill="#219653"/>
</g>
<g style="mix-blend-mode:difference" opacity="0.15">
<path d="M142.499 67.1391C141.577 65.9493 140.879 64.7192 140.351 63.4841C140.327 63.4317 140.471 63.4352 140.501 63.4855C141.243 64.7095 141.972 65.9186 142.664 67.1283C142.703 67.1945 142.544 67.1998 142.499 67.1391Z" fill="#219653"/>
</g>
<g style="mix-blend-mode:difference" opacity="0.15">
<path d="M143.453 65.029C143.601 63.7272 143.849 62.4576 144.178 61.2039C144.197 61.1342 144.39 61.1747 144.383 61.2481C144.262 62.5413 144.024 63.8224 143.638 65.0717C143.618 65.138 143.444 65.0956 143.451 65.0256L143.453 65.029Z" fill="#219653"/>
</g>
<g style="mix-blend-mode:difference" opacity="0.15">
<path d="M142.479 69.0037C142.75 69.0682 143.962 68.0045 144.138 67.8594C144.611 67.4932 145.047 67.1049 145.56 66.7597C145.669 66.6881 145.884 66.8115 145.822 66.8907C145.173 67.732 143.972 68.6049 142.688 69.1327C142.641 69.1511 142.575 69.1421 142.541 69.1076L142.451 69.0236C142.451 69.0236 142.462 68.9978 142.482 69.0027L142.479 69.0037Z" fill="#219653"/>
</g>
<path d="M143.501 65.2536C143.239 66.6214 142.919 67.9735 142.654 69.3344C142.41 70.5838 142.375 71.8502 141.97 73.0528C141.941 73.1371 141.661 73.1426 141.651 73.0373C141.342 70.463 142.307 67.6377 143.314 65.2075C143.342 65.1425 143.52 65.1839 143.504 65.2525L143.501 65.2536Z" fill="#219653"/>
<g style="mix-blend-mode:difference" opacity="0.15">
<path d="M143.501 65.2536C143.239 66.6214 142.919 67.9735 142.654 69.3344C142.41 70.5838 142.375 71.8502 141.97 73.0528C141.941 73.1371 141.661 73.1426 141.651 73.0373C141.342 70.463 142.307 67.6377 143.314 65.2075C143.342 65.1425 143.52 65.1839 143.504 65.2525L143.501 65.2536Z" fill="#219653"/>
</g>
<path d="M176.636 87.353C173.803 89.2191 170.805 90.4665 167.555 91.1265C168.7 91.253 169.862 91.5166 171.01 91.9382C171.099 91.9702 171.205 92.0228 171.255 92.1457C171.328 92.3289 171.206 92.4535 171.097 92.4991C168.748 93.5008 165.87 93.1633 162.746 91.6778C163.087 89.3823 163.921 87.355 165.149 85.7209C165.381 85.4117 165.631 85.1118 165.961 84.9557C166.071 84.9022 166.203 84.8682 166.344 84.9361C166.56 85.0403 166.727 85.3664 166.771 85.6486C166.816 85.9341 166.763 86.183 166.7 86.4126C166.641 86.6297 166.575 86.8343 166.502 87.0332C167.146 86.1974 167.858 85.426 168.668 84.7964C169.07 84.4788 169.502 84.1966 169.998 84.1077C170.137 84.0829 170.301 84.08 170.434 84.2179C170.594 84.3811 170.657 84.6873 170.625 84.9071C170.591 85.1315 170.484 85.2925 170.381 85.4411C169.423 86.8141 168.392 88.0119 167.281 89.032C169.697 87.7207 172.253 86.5676 174.942 86.0656C175.491 85.964 176.06 85.8898 176.631 86.122C176.751 86.1704 176.883 86.245 176.962 86.4113C177.145 86.8032 176.881 87.1898 176.642 87.3474L176.636 87.353Z" fill="#219653"/>
<g style="mix-blend-mode:difference" opacity="0.15">
<path d="M164.285 90.4512C164.414 89.7888 164.783 89.2942 165.077 88.7668C165.419 88.1498 165.75 87.5099 166.142 86.9254C166.204 86.8348 166.365 86.9901 166.319 87.1058C166.041 87.7589 165.712 88.3423 165.392 88.9337C165.081 89.5038 164.82 90.1855 164.357 90.5372C164.324 90.5626 164.28 90.4941 164.289 90.4502L164.285 90.4512Z" fill="#0071BC"/>
</g>
<g style="mix-blend-mode:difference" opacity="0.15">
<path d="M166.591 89.6241C167.266 88.149 168.15 86.8403 169.171 85.691C169.216 85.6431 169.287 85.763 169.252 85.8189C168.362 87.1445 167.517 88.4596 166.696 89.7558C166.651 89.8262 166.558 89.6981 166.591 89.6241Z" fill="#0071BC"/>
</g>
<g style="mix-blend-mode:difference" opacity="0.15">
<path d="M169.247 89.2039C170.643 88.5921 172.085 88.1155 173.543 87.7499C173.626 87.7276 173.679 87.9206 173.6 87.9532C172.198 88.522 170.77 89.009 169.301 89.3891C169.222 89.4104 169.17 89.2354 169.243 89.205L169.247 89.2039Z" fill="#0071BC"/>
</g>
<g style="mix-blend-mode:difference" opacity="0.15">
<path d="M164.726 90.7322C164.826 90.9893 166.569 91.3507 166.807 91.4146C167.437 91.5947 168.056 91.7294 168.675 91.9692C168.807 92.0211 168.803 92.2697 168.689 92.2644C167.517 92.195 165.989 91.7095 164.717 90.9784C164.671 90.9516 164.644 90.889 164.655 90.8406L164.683 90.7156C164.688 90.6953 164.714 90.706 164.721 90.7298L164.726 90.7322Z" fill="#0071BC"/>
</g>
<path d="M169.049 89.3747C167.523 89.9301 165.996 90.4595 164.501 91.0765C163.128 91.6436 161.884 92.4173 160.486 92.8799C160.388 92.9111 160.207 92.6944 160.302 92.6158C162.572 90.6758 165.991 89.7044 168.99 89.1872C169.072 89.1728 169.126 89.3466 169.049 89.3747Z" fill="#219653"/>
<g style="mix-blend-mode:difference" opacity="0.15">
<path d="M169.049 89.3747C167.523 89.9301 165.996 90.4595 164.501 91.0765C163.128 91.6436 161.884 92.4173 160.486 92.8799C160.388 92.9111 160.207 92.6944 160.302 92.6158C162.572 90.6758 165.991 89.7044 168.99 89.1872C169.072 89.1728 169.126 89.3466 169.049 89.3747Z" fill="#219653"/>
</g>
<path d="M75.5081 114.356C75.3903 113.09 75.7459 112.101 76.3239 111.402C76.9018 110.703 77.7102 110.284 78.5735 110.158C79.4369 110.032 80.3597 110.202 81.1729 110.714C81.9826 111.228 82.6882 112.088 83.0214 113.385C83.3696 114.729 83.1147 115.847 82.485 116.667C81.8587 117.486 80.8612 117.995 79.8192 118.124C78.7772 118.254 77.6962 118.01 76.8897 117.376C76.0797 116.743 75.5507 115.729 75.5081 114.356Z" fill="#B83523"/>
<path d="M77.3648 116.541C77.1388 116.406 76.9371 116.229 76.8234 115.999C76.7808 115.911 76.7518 115.819 76.7365 115.723C76.6068 115.775 76.4762 115.812 76.3379 115.837C75.9229 115.912 75.492 115.864 75.0986 115.733C75.0401 115.714 74.9806 115.691 74.9268 115.663C75.2421 115.058 75.7299 114.549 76.3054 114.199C76.1486 113.975 76.0491 113.706 75.9972 113.434C75.9465 113.154 75.9433 112.871 75.9514 112.587C76.0077 112.599 76.0685 112.614 76.1283 112.625C76.3725 112.687 76.6225 112.743 76.8476 112.863C77.0604 112.98 77.2441 113.147 77.3821 113.347C77.8029 113.053 78.302 112.877 78.8102 112.837C78.9 113.146 78.8489 113.496 78.7453 113.809C78.6477 114.106 78.505 114.391 78.3244 114.65C78.2781 114.717 78.2215 114.787 78.1606 114.844C78.4208 115.17 78.5892 115.574 78.5925 115.989C78.5952 116.296 78.5053 116.605 78.337 116.868C77.9896 116.823 77.6581 116.71 77.3671 116.536L77.3648 116.541Z" fill="#B83523"/>
<g style="mix-blend-mode:overlay" opacity="0.42">
<path d="M77.3648 116.541C77.1388 116.406 76.9371 116.229 76.8234 115.999C76.7808 115.911 76.7518 115.819 76.7365 115.723C76.6068 115.775 76.4762 115.812 76.3379 115.837C75.9229 115.912 75.492 115.864 75.0986 115.733C75.0401 115.714 74.9806 115.691 74.9268 115.663C75.2421 115.058 75.7299 114.549 76.3054 114.199C76.1486 113.975 76.0491 113.706 75.9972 113.434C75.9465 113.154 75.9433 112.871 75.9514 112.587C76.0077 112.599 76.0685 112.614 76.1283 112.625C76.3725 112.687 76.6225 112.743 76.8476 112.863C77.0604 112.98 77.2441 113.147 77.3821 113.347C77.8029 113.053 78.302 112.877 78.8102 112.837C78.9 113.146 78.8489 113.496 78.7453 113.809C78.6477 114.106 78.505 114.391 78.3244 114.65C78.2781 114.717 78.2215 114.787 78.1606 114.844C78.4208 115.17 78.5892 115.574 78.5925 115.989C78.5952 116.296 78.5053 116.605 78.337 116.868C77.9896 116.823 77.6581 116.71 77.3671 116.536L77.3648 116.541Z" fill="#F8E2CA"/>
</g>
<path d="M76.6701 114.691C76.6464 114.485 76.6216 114.276 76.6792 114.078C76.7368 113.88 76.8914 113.692 77.094 113.67C77.2424 113.653 77.3916 113.722 77.4971 113.831C77.5992 113.942 77.659 114.084 77.6939 114.23C77.7752 114.572 77.7204 114.945 77.5355 115.25C77.496 115.315 77.452 115.378 77.3858 115.417C77.2602 115.494 77.0832 115.468 76.9706 115.372C76.8581 115.276 76.7983 115.134 76.7758 114.991L76.6667 114.692L76.6701 114.691Z" fill="#1B334D"/>
<g style="mix-blend-mode:multiply" opacity="0.25">
<path d="M81.8522 115.109C81.8392 114.128 81.5597 113.133 81.0203 112.407C80.4764 111.679 79.6883 111.223 78.6101 111.285C78.4404 111.294 78.3252 111.023 78.4626 110.912C79.4274 110.133 80.7534 110.929 81.4909 111.772C82.268 112.681 82.7958 114.036 82.1203 115.163C82.0493 115.283 81.8544 115.247 81.8511 115.106L81.8522 115.109Z" fill="#B83523"/>
<path d="M81.6918 116.718L81.668 116.726C81.5438 116.783 81.4066 116.812 81.2834 116.742C81.1972 116.694 81.1329 116.621 81.1073 116.527C81.0794 116.439 81.0992 116.335 81.1481 116.252C81.2214 116.128 81.3419 116.083 81.4813 116.061L81.5017 116.055C81.5821 116.048 81.6696 116.088 81.7266 116.126C81.7892 116.17 81.8469 116.235 81.8671 116.311C81.883 116.373 81.8831 116.433 81.8662 116.498C81.8491 116.575 81.7715 116.686 81.6918 116.718Z" fill="#B83523"/>
</g>
<path d="M78.5477 57.9191C78.3156 57.2653 78.7495 56.5254 79.2601 56.005C79.8821 55.3746 80.6658 54.8768 81.529 54.6912C82.3888 54.5066 83.3323 54.6592 84.0152 55.186C84.4571 55.5302 84.7747 56.0035 85.0639 56.4819C85.9154 57.8773 86.6241 59.4263 86.6328 61.0721C86.6389 61.9244 86.4168 62.8373 85.774 63.4256C85.3791 63.7898 84.8615 63.9902 84.3491 64.1478C82.9461 64.5708 81.4421 64.6846 80.0795 64.3194C78.7134 63.9552 77.5017 63.0816 76.8985 61.844C76.633 61.2982 76.4864 60.6662 76.6222 60.0502C76.758 59.4342 77.221 58.8463 77.8421 58.677" fill="#B83523"/>
<path d="M77.0187 59.277C77.2994 59.7281 77.9088 59.8547 78.384 59.5553C78.8591 59.2558 79.0152 58.6447 78.729 58.1878C78.4427 57.7309 77.831 57.6087 77.3603 57.9106C76.8896 58.2124 76.7381 58.8258 77.0187 59.277Z" fill="#B83523"/>
<path d="M75.9833 60.6035C76.2595 61.0523 76.8633 61.1732 77.3351 60.8748C77.8069 60.5764 77.9651 59.972 77.6844 59.5209C77.4071 59.0687 76.7965 58.95 76.3292 59.2507C75.8619 59.5515 75.7082 60.1581 75.9833 60.6035Z" fill="#B83523"/>
<path d="M76.1715 61.9867C76.4047 62.3704 76.9251 62.4763 77.3283 62.2219C77.735 61.9665 77.8714 61.4478 77.6337 61.0618C77.3994 60.6747 76.879 60.5688 76.4724 60.8242C76.0702 61.0819 75.9338 61.6007 76.167 61.9844L76.1715 61.9867Z" fill="#B83523"/>
<path d="M76.8871 63.3312C77.1928 63.8382 77.8709 63.9806 78.4087 63.654C78.9454 63.3239 79.132 62.6432 78.8241 62.1294C78.5139 61.6201 77.8314 61.4753 77.2991 61.8078C76.768 62.1436 76.5848 62.8232 76.8905 63.3302L76.8871 63.3312Z" fill="#B83523"/>
<path d="M78.3647 64.061C78.5791 64.4206 79.0577 64.5247 79.439 64.2959C79.8193 64.0638 79.9528 63.5834 79.7373 63.2204C79.5219 62.8574 79.0388 62.751 78.663 62.9854C78.2838 63.221 78.1537 63.7003 78.3681 64.0599L78.3647 64.061Z" fill="#B83523"/>
<path d="M79.7001 64.6972C79.9408 65.1048 80.4823 65.2302 80.9105 64.9718C81.3387 64.7133 81.4936 64.17 81.2518 63.7591C81.01 63.3481 80.465 63.2237 80.0379 63.4856C79.6108 63.7475 79.4594 64.2897 79.7001 64.6972Z" fill="#B83523"/>
<path d="M81.1542 64.7228C81.4564 65.2421 82.1398 65.4016 82.6831 65.0806C83.2265 64.7597 83.4222 64.0724 83.119 63.5496C82.8158 63.0269 82.1245 62.8661 81.5867 63.1928C81.0455 63.5206 80.8555 64.2024 81.1576 64.7217L81.1542 64.7228Z" fill="#B83523"/>
<path d="M83.063 64.4552C83.2904 64.8444 83.8015 64.9682 84.2067 64.732C84.6153 64.4947 84.7606 63.9806 84.5321 63.588C84.3036 63.1953 83.7925 63.0715 83.385 63.3122C82.9819 63.5552 82.8355 64.0659 83.063 64.4552Z" fill="#B83523"/>
<path d="M84.6504 64.0454C84.8668 64.4231 85.3576 64.5421 85.7468 64.3146C86.136 64.0872 86.2776 63.5968 86.0602 63.2156C85.8428 62.8345 85.3485 62.7166 84.9593 62.944C84.5712 63.1749 84.433 63.6642 84.6494 64.042L84.6504 64.0454Z" fill="#B83523"/>
<path d="M85.0541 62.8055C85.3552 63.3214 86.026 63.4886 86.5613 63.1777C87.0932 62.8679 87.2843 62.1895 86.9811 61.6668C86.6779 61.1441 86.0002 60.979 85.4705 61.2957C84.9407 61.6123 84.7565 62.2885 85.0541 62.8055Z" fill="#B83523"/>
<path d="M85.7084 61.1832C85.9348 61.5691 86.439 61.695 86.8374 61.461C87.2358 61.2269 87.372 60.7194 87.1445 60.3302C86.9171 59.941 86.4094 59.816 86.0121 60.0535C85.6182 60.29 85.4809 60.794 85.7084 61.1832Z" fill="#B83523"/>
<path d="M85.256 59.591C85.4868 59.9791 85.9923 60.0972 86.3873 59.8642C86.7846 59.6267 86.9174 59.1203 86.6865 58.7322C86.4557 58.344 85.9457 58.2236 85.5518 58.46C85.159 58.6998 85.0262 59.2062 85.257 59.5944L85.256 59.591Z" fill="#B83523"/>
<path d="M84.4455 58.1827C84.7512 58.6897 85.4188 58.8467 85.9417 58.5322C86.4612 58.2187 86.6353 57.5457 86.324 57.033C86.0127 56.5204 85.3417 56.3645 84.8243 56.6847C84.3069 57.005 84.1397 57.6758 84.4455 58.1827Z" fill="#B83523"/>
<path d="M83.7221 56.7544C84.0379 57.2694 84.7202 57.4255 85.2478 57.1021C85.7754 56.7786 85.9485 56.0909 85.6272 55.5701C85.3058 55.0493 84.6201 54.8943 84.0936 55.2212C83.5682 55.5515 83.4018 56.237 83.7176 56.7521L83.7221 56.7544Z" fill="#B83523"/>
<path d="M82.5472 55.7344C82.8796 56.2667 83.5856 56.4266 84.1339 56.0854C84.6787 55.7452 84.8556 55.0339 84.521 54.4948C84.1864 53.9557 83.4702 53.7991 82.9275 54.146C82.3849 54.493 82.2182 55.2011 82.5472 55.7344Z" fill="#B83523"/>
<path d="M81.1301 55.2926C81.3876 55.7061 81.9418 55.8239 82.3633 55.5563C82.7849 55.2887 82.9218 54.736 82.6598 54.3202C82.3977 53.9044 81.8436 53.7866 81.4231 54.0576C81.0027 54.3286 80.8725 54.8792 81.1301 55.2926Z" fill="#B83523"/>
<path d="M79.7298 55.8309C79.9632 56.2032 80.4644 56.3077 80.8483 56.0632C81.2321 55.8187 81.3524 55.32 81.1179 54.9442C80.8801 54.5695 80.3788 54.4651 79.996 54.713C79.6133 54.9609 79.4975 55.4619 79.7298 55.8309Z" fill="#B83523"/>
<path d="M78.2361 56.9532C78.5444 57.4443 79.2055 57.5808 79.7174 57.2548C80.2292 56.9288 80.3917 56.267 80.0779 55.7701C79.7641 55.2731 79.0995 55.1377 78.5922 55.466C78.0848 55.7944 77.9268 56.4586 78.2361 56.9532Z" fill="#B83523"/>
<path d="M77.6004 58.5396C77.9185 59.0501 78.6079 59.1928 79.139 58.8569C79.6736 58.52 79.8457 57.8289 79.5254 57.3115C79.2052 56.7942 78.509 56.6537 77.98 56.9963C77.451 57.339 77.2823 58.029 77.6004 58.5396Z" fill="#B83523"/>
<g style="mix-blend-mode:screen" opacity="0.25">
<path d="M83.7798 55.9382C83.05 56.3928 82.3599 55.2838 83.0876 54.8224C83.8152 54.361 84.5131 55.4826 83.7798 55.9382Z" fill="#B83523"/>
<path d="M85.5325 58.0427C84.7972 58.4916 84.1185 57.3714 84.8528 56.9192C85.5872 56.4669 86.2714 57.5928 85.5325 58.0427Z" fill="#B83523"/>
<path d="M86.3377 61.326C85.5957 61.7657 84.9386 60.6425 85.6761 60.2005C86.4171 59.7574 87.0797 60.8863 86.3377 61.326Z" fill="#B83523"/>
<path d="M85.9942 63.1389C85.2511 63.5752 84.603 62.4567 85.3439 62.0136C86.086 61.5739 86.7407 62.7015 85.9942 63.1389Z" fill="#B83523"/>
<path d="M83.9992 63.9656C83.2561 64.4019 82.6123 63.297 83.3532 62.8539C84.0942 62.4108 84.7457 63.5283 83.9992 63.9656Z" fill="#B83523"/>
<path d="M84.8297 59.9988C84.0932 60.4442 83.4246 59.3321 84.159 58.8799C84.8944 58.431 85.5696 59.5522 84.8297 59.9988Z" fill="#B83523"/>
<path d="M83.2794 57.9429C82.5484 58.394 81.8673 57.2897 82.5995 56.8306C83.3316 56.3716 84.0171 57.4895 83.2794 57.9429Z" fill="#B83523"/>
<path d="M80.6865 55.11L80.7242 55.0869C81.0201 54.8963 81.4631 54.9704 81.6354 55.2796C81.811 55.5877 81.732 55.991 81.4167 56.1915L81.379 56.2146C81.082 56.4017 80.6424 56.3266 80.4678 56.0219C80.2966 55.7161 80.3723 55.3139 80.6865 55.11Z" fill="#B83523"/>
<path d="M80.397 58.6181C79.6683 59.0761 78.9914 57.9853 79.718 57.5205C80.4457 57.0591 81.1292 58.159 80.397 58.6181Z" fill="#B83523"/>
<path d="M82.0574 59.7139C81.3231 60.1661 80.6543 59.0654 81.3875 58.6097C82.1208 58.154 82.7962 59.264 82.0574 59.7139Z" fill="#B83523"/>
<path d="M83.8052 61.7787C83.0677 62.2207 82.408 61.1134 83.1468 60.6634C83.8856 60.2135 84.5485 61.3311 83.8052 61.7787Z" fill="#B83523"/>
</g>
<path d="M78.5986 57.0338C77.8579 56.3116 77.1324 55.5659 76.2262 54.937C75.7725 54.6265 75.2797 54.3583 74.7667 54.1452C74.2561 53.9275 73.7311 53.7594 73.2125 53.6117L72.8376 55.146C73.8349 55.2553 74.7857 55.443 75.665 55.8556C76.5476 56.2671 77.3886 56.8678 78.2401 57.4539L78.5986 57.0338Z" fill="#219653"/>
<path d="M78.9548 57.4162C79.0599 56.8811 79.0235 56.4204 78.9381 55.9827C78.8494 55.5461 78.7069 55.1413 78.5121 54.7606C78.3207 54.3787 78.0746 54.0254 77.7748 53.7039C77.4682 53.3845 77.1205 53.0894 76.629 52.8732C76.5364 53.4119 76.5796 53.8704 76.6649 54.3081C76.7595 54.7392 76.9029 55.1473 77.0956 55.5213C77.2894 55.8986 77.531 56.2497 77.824 56.5733C78.1238 56.8948 78.4681 57.191 78.9514 57.4173L78.9548 57.4162Z" fill="#219653"/>
<path d="M79.0306 57.4185C78.6292 57.1552 78.2548 57.0371 77.8865 56.962C77.5203 56.8937 77.16 56.8798 76.8045 56.9168C76.4479 56.9503 76.0971 57.0383 75.7399 57.177C75.3848 57.3225 75.029 57.5132 74.6639 57.853C75.0238 58.163 75.3944 58.3049 75.7692 58.4004C76.1418 58.4892 76.5156 58.5101 76.8892 58.4711C77.2595 58.4333 77.6306 58.3389 77.9916 58.1765C78.3516 58.0107 78.7056 57.7906 79.0295 57.4151L79.0306 57.4185Z" fill="#219653"/>
<path d="M79.0675 57.1784C79.4813 56.8982 79.7433 56.576 79.9568 56.2427C80.1625 55.9082 80.3097 55.5546 80.3971 55.1899C80.4846 54.8252 80.5181 54.4437 80.4806 54.0509C80.4329 53.6613 80.3427 53.2438 80.0453 52.8466C79.6802 53.1864 79.4455 53.5001 79.2556 53.8371C79.0691 54.1731 78.9368 54.5145 78.854 54.8702C78.7712 55.226 78.7358 55.5894 78.7553 55.9728C78.7817 56.3542 78.8521 56.7442 79.0675 57.1784Z" fill="#219653"/>
<path d="M52.7322 72.1241C56.071 72.4591 59.1532 73.407 62.0317 74.981C61.2453 74.1495 60.5355 73.2041 59.9293 72.1473C59.8809 72.0651 59.8364 71.9592 59.8758 71.8344C59.9365 71.6467 60.1075 71.6303 60.2199 71.6661C62.6491 72.3962 64.6211 74.5066 66.0061 77.6561C64.2704 79.188 62.3445 80.199 60.3869 80.6692C60.017 80.7557 59.636 80.8307 59.2917 80.7368C59.1735 80.7065 59.0547 80.6503 58.9915 80.5091C58.8968 80.2916 58.9751 79.9335 59.1261 79.6874C59.2738 79.4423 59.4743 79.2818 59.6676 79.146C59.8483 79.0179 60.0333 78.9035 60.2136 78.798C59.1959 79.0285 58.1719 79.1673 57.163 79.1403C56.6569 79.1273 56.1525 79.0725 55.7237 78.8291C55.6006 78.7592 55.4801 78.6623 55.4641 78.4687C55.4453 78.2424 55.5912 77.9679 55.7565 77.8147C55.9229 77.6649 56.107 77.6069 56.2785 77.5567C57.8707 77.1041 59.4134 76.8394 60.9043 76.7671C58.2436 76.2298 55.5816 75.4981 53.2152 74.1938C52.7303 73.9268 52.2538 73.6273 51.9634 73.0855C51.9009 72.9703 51.849 72.8293 51.8949 72.6537C51.9991 72.235 52.4477 72.1013 52.7299 72.1286L52.7322 72.1241Z" fill="#219653"/>
<g style="mix-blend-mode:difference" opacity="0.15">
<path d="M64.061 77.5942C63.5385 78.0172 62.9428 78.1598 62.3842 78.3731C61.7335 78.6267 61.0755 78.9051 60.4076 79.1041C60.3054 79.1363 60.2831 78.911 60.3926 78.8541C61.0174 78.53 61.6396 78.2929 62.2552 78.0466C62.8548 77.8091 63.4892 77.4558 64.0606 77.4857C64.1024 77.4875 64.0874 77.5709 64.0576 77.5953L64.061 77.5942Z" fill="#219653"/>
</g>
<g style="mix-blend-mode:difference" opacity="0.15">
<path d="M61.7979 76.7482C60.3429 77.4461 58.8447 77.8878 57.3454 78.1238C57.2808 78.1329 57.3046 77.9943 57.366 77.975C58.8791 77.5211 60.3552 77.0451 61.8041 76.5776C61.8825 76.5529 61.872 76.7099 61.7968 76.7448L61.7979 76.7482Z" fill="#219653"/>
</g>
<g style="mix-blend-mode:difference" opacity="0.15">
<path d="M59.5219 75.3741C58.0743 74.9532 56.6808 74.4066 55.3363 73.7658C55.2612 73.7296 55.3389 73.5477 55.4221 73.574C56.8478 74.0206 58.2438 74.5514 59.5972 75.1968C59.6713 75.2297 59.5962 75.3957 59.5219 75.3741Z" fill="#219653"/>
</g>
<g style="mix-blend-mode:difference" opacity="0.15">
<path d="M63.9124 77.0978C64.0026 76.837 62.9218 75.4389 62.7804 75.2399C62.4222 74.697 62.0361 74.1966 61.7225 73.6172C61.6534 73.4929 61.8182 73.3024 61.8994 73.3817C62.7438 74.1836 63.5858 75.5371 64.0759 76.9151C64.092 76.9663 64.074 77.0281 64.0351 77.0591L63.9321 77.1365C63.9138 77.1498 63.9018 77.1236 63.9134 77.1012L63.9124 77.0978Z" fill="#219653"/>
</g>
<path d="M59.7795 75.3717C61.286 75.9202 62.7808 76.4911 64.2985 76.9799C65.6948 77.4282 67.1266 77.6443 68.4736 78.1981C68.569 78.2392 68.5632 78.5183 68.44 78.5196C65.4878 78.52 62.3032 77.0686 59.6984 75.5545C59.6291 75.5127 59.6963 75.3454 59.7761 75.3727L59.7795 75.3717Z" fill="#219653"/>
<g style="mix-blend-mode:difference" opacity="0.15">
<path d="M59.7795 75.3717C61.286 75.9202 62.7808 76.4911 64.2985 76.9799C65.6948 77.4282 67.1266 77.6443 68.4736 78.1981C68.569 78.2392 68.5632 78.5183 68.44 78.5196C65.4878 78.52 62.3032 77.0686 59.6984 75.5545C59.6291 75.5127 59.6963 75.3454 59.7761 75.3727L59.7795 75.3717Z" fill="#219653"/>
</g>
<path d="M58.2126 165.177C60.2818 163.17 62.5246 161.725 65.1168 160.748C64.1142 160.753 63.0744 160.616 62.0204 160.314C61.9383 160.291 61.8395 160.251 61.7702 160.138C61.6679 159.968 61.7401 159.841 61.8212 159.789C63.5428 158.629 65.9992 158.672 69.0696 159.653C69.3932 161.86 69.1703 163.9 68.469 165.624C68.3347 165.947 68.1858 166.271 67.9295 166.457C67.8414 166.522 67.7366 166.57 67.5983 166.523C67.3848 166.452 67.1648 166.158 67.0653 165.89C66.9624 165.622 66.9552 165.373 66.9556 165.148C66.9592 164.934 66.9694 164.728 66.9897 164.531C66.6212 165.407 66.1655 166.233 65.5899 166.927C65.3037 167.28 64.9808 167.599 64.5636 167.737C64.4443 167.775 64.3049 167.796 64.1589 167.678C63.9872 167.537 63.8699 167.248 63.8533 167.028C63.8366 166.809 63.897 166.644 63.9561 166.486C64.5089 165.065 65.1347 163.804 65.8493 162.706C64.0854 164.231 62.1129 165.594 59.8904 166.294C59.4371 166.437 58.9593 166.55 58.4323 166.363C58.3188 166.324 58.1944 166.262 58.0999 166.105C57.8754 165.737 58.0347 165.338 58.2104 165.171L58.2126 165.177Z" fill="#219653"/>
<g style="mix-blend-mode:difference" opacity="0.15">
<path d="M68.0716 161.006C68.131 161.646 67.9347 162.165 67.8081 162.703C67.6654 163.333 67.5256 163.984 67.3233 164.591C67.2901 164.687 67.1137 164.555 67.1292 164.438C67.2216 163.78 67.3672 163.183 67.5004 162.583C67.6322 162.002 67.6843 161.322 67.9926 160.933C68.0134 160.904 68.07 160.965 68.075 161.004L68.0716 161.006Z" fill="#219653"/>
</g>
<g style="mix-blend-mode:difference" opacity="0.15">
<path d="M66.2974 162.07C66.0748 163.553 65.6023 164.908 64.9512 166.124C64.9221 166.175 64.8358 166.067 64.8548 166.009C65.3525 164.638 65.7832 163.281 66.175 161.955C66.1965 161.881 66.3066 161.992 66.2974 162.07Z" fill="#219653"/>
</g>
<g style="mix-blend-mode:difference" opacity="0.15">
<path d="M64.1244 162.762C63.069 163.491 61.9368 164.084 60.7646 164.561C60.6986 164.589 60.6157 164.41 60.6785 164.371C61.7577 163.705 62.8697 163.108 64.0346 162.595C64.0972 162.568 64.1781 162.73 64.1255 162.765L64.1244 162.762Z" fill="#219653"/>
</g>
<g style="mix-blend-mode:difference" opacity="0.15">
<path d="M67.623 160.795C67.472 160.565 65.8964 160.428 65.6834 160.394C65.1076 160.29 64.5491 160.23 63.9721 160.063C63.8483 160.027 63.7924 159.79 63.8885 159.786C64.8874 159.734 66.2964 160.032 67.5681 160.561C67.6153 160.58 67.6516 160.636 67.6554 160.683L67.6601 160.805C67.6621 160.824 67.6339 160.817 67.6241 160.798L67.623 160.795Z" fill="#219653"/>
</g>
<path d="M64.2577 162.577C65.4311 161.889 66.6112 161.211 67.7294 160.443C68.7585 159.736 69.6121 158.842 70.6726 158.212C70.748 158.166 70.962 158.346 70.9074 158.434C69.5118 160.582 66.7999 161.953 64.3542 162.753C64.2861 162.774 64.2017 162.614 64.2622 162.58L64.2577 162.577Z" fill="#219653"/>
<g style="mix-blend-mode:difference" opacity="0.15">
<path d="M64.2577 162.577C65.4311 161.889 66.6112 161.211 67.7294 160.443C68.7585 159.736 69.6121 158.842 70.6726 158.212C70.748 158.166 70.962 158.346 70.9074 158.434C69.5118 160.582 66.7999 161.953 64.3542 162.753C64.2861 162.774 64.2017 162.614 64.2622 162.58L64.2577 162.577Z" fill="#219653"/>
</g>
<path d="M73.3272 96.958C73.3622 96.8907 73.4125 96.8599 73.4697 96.8157C73.5957 96.7161 73.7856 96.7837 73.8718 96.9026C74.033 97.1291 74.0106 97.4509 73.7562 97.5947C73.4572 97.7638 73.1126 97.4901 72.9847 97.2269C72.6909 96.615 73.1859 95.8785 73.8872 96.0473C74.5885 96.2161 74.8663 97.1103 74.3265 97.6212C74.0842 97.8511 73.7386 97.9674 73.4096 97.9099C73.0118 97.8365 72.8162 97.3699 72.8258 96.9959C72.8373 96.5802 73.1233 96.0368 73.6202 96.1276C74.1487 96.2235 74.0217 97.0577 73.5041 96.8535L73.6607 96.8867C73.6901 96.8849 73.7378 96.8699 73.6877 96.8894C73.459 96.9839 73.6418 96.8626 73.6813 96.8689C73.6814 96.7977 73.705 96.8727 73.6813 96.8689C73.6806 96.8429 73.6324 97.023 73.6482 96.9543C73.6201 97.0793 73.667 97.1807 73.7468 97.2792L73.5021 97.109C73.6359 97.153 73.7684 97.1337 73.8473 97.0153C73.8878 96.9538 73.8747 96.8643 73.766 96.8048C73.7022 96.7687 73.6975 96.7777 73.6453 96.7903C73.6952 96.7821 73.6523 96.7769 73.6498 96.7927C73.6496 96.804 73.6428 96.8061 73.6354 96.8422C73.6179 96.9413 73.6229 96.981 73.7375 97.0236L73.4869 97.0013C73.4297 97.0456 73.3914 97.1026 73.3743 97.1792C73.384 97.2098 73.3829 97.2064 73.3711 97.1689C73.3283 97.0925 73.349 97.0035 73.3695 96.9259L73.4532 97.0607L73.4259 97.0692C73.359 97.0828 73.3002 97.0151 73.3329 96.9524L73.3272 96.958Z" fill="#F8E2CA"/>
</svg>
