<svg width="56" height="56" viewBox="0 0 56 56" fill="none" xmlns="http://www.w3.org/2000/svg">
<path fill-rule="evenodd" clip-rule="evenodd" d="M51.3334 28C51.3334 40.8865 40.8866 51.3333 28.0001 51.3333C15.1134 51.3333 4.66675 40.8865 4.66675 28C4.66675 15.1134 15.1134 4.66667 28.0001 4.66667C40.8866 4.66667 51.3334 15.1134 51.3334 28ZM37.4041 20.9292C38.0875 21.6126 38.0875 22.7207 37.4041 23.404L25.7374 35.0707C25.054 35.7541 23.9461 35.7541 23.2626 35.0707L18.596 30.404C17.9126 29.7206 17.9126 28.6127 18.596 27.9293C19.2794 27.2459 20.3874 27.2459 21.0709 27.9293L24.5001 31.3584L29.7146 26.1438L34.9294 20.9292C35.6128 20.2458 36.7207 20.2458 37.4041 20.9292Z" fill="#27AE60"/>
</svg>
