<svg width="56" height="56" viewBox="0 0 56 56" fill="none" xmlns="http://www.w3.org/2000/svg">
<path fill-rule="evenodd" clip-rule="evenodd" d="M51.3334 28C51.3334 40.8865 40.8866 51.3333 28.0001 51.3333C15.1134 51.3333 4.66675 40.8865 4.66675 28C4.66675 15.1133 15.1134 4.66666 28.0001 4.66666C40.8866 4.66666 51.3334 15.1133 51.3334 28ZM20.9292 20.9292C21.6126 20.2458 22.7207 20.2458 23.4041 20.9292L28.0001 25.525L32.5958 20.9292C33.2792 20.2458 34.3873 20.2458 35.0708 20.9292C35.7542 21.6126 35.7542 22.7207 35.0708 23.404L30.4748 28L35.0708 32.5957C35.7542 33.2792 35.7542 34.3873 35.0708 35.0707C34.3873 35.7541 33.2792 35.7541 32.5958 35.0707L28.0001 30.475L23.4041 35.0707C22.7207 35.7541 21.6127 35.7541 20.9293 35.0707C20.2459 34.3873 20.2459 33.2792 20.9293 32.596L25.5251 28L20.9292 23.404C20.2458 22.7206 20.2458 21.6126 20.9292 20.9292Z" fill="#EB5757"/>
</svg>
