<svg width="56" height="56" viewBox="0 0 56 56" fill="none" xmlns="http://www.w3.org/2000/svg">
<path d="M28.0001 4C15.1201 4 4.66675 14.4533 4.66675 27.3333C4.66675 40.2133 15.1201 50.6667 28.0001 50.6667C40.8801 50.6667 51.3334 40.2133 51.3334 27.3333C51.3334 14.4533 40.8801 4 28.0001 4ZM28.7701 39C28.3501 39.14 27.6267 39.14 27.2067 39C23.5667 37.7633 15.4001 32.56 15.4001 23.74C15.4001 19.8433 18.5267 16.6933 22.4001 16.6933C24.6867 16.6933 26.7167 17.79 28.0001 19.5167C29.2601 17.8133 31.3134 16.6933 33.6001 16.6933C37.4734 16.6933 40.6001 19.8433 40.6001 23.74C40.6001 32.56 32.4334 37.7633 28.7701 39Z" fill="#2F80ED"/>
</svg>
