<svg width="230" height="186" viewBox="0 0 230 186" fill="none" xmlns="http://www.w3.org/2000/svg">
<path d="M52.0403 42.4373C-52.0095 30.339 56.2994 185.104 171.286 170.199C286.27 155.294 143.603 53.0834 52.0403 42.4373Z" stroke="white" stroke-width="2.0893" stroke-miterlimit="10"/>
<path d="M67.8785 59.3252C-8.7367 50.4158 71.014 164.375 155.681 153.4C240.348 142.424 135.298 67.1645 67.8785 59.3252Z" stroke="white" stroke-width="1.5384" stroke-miterlimit="10"/>
<path d="M165.638 153.793C165.638 153.793 93.9725 120.24 97.8586 63.1562" stroke="white" stroke-width="2.0893" stroke-miterlimit="10" stroke-linecap="round" stroke-linejoin="round"/>
<path d="M96.9651 67.8998C96.2833 64.6788 84.7215 42.7767 96.5554 37.897C108.391 33.0173 96.9651 67.8998 96.9651 67.8998Z" fill="white"/>
<path d="M107.768 103.258C107.768 103.258 102.63 70.65 117.124 73.9001C131.618 77.1502 107.768 103.258 107.768 103.258Z" fill="white"/>
<path d="M125.772 121.462C125.772 121.462 125.206 96.5222 133.541 98.7878C141.875 101.052 125.772 121.462 125.772 121.462Z" fill="white"/>
<path d="M101.546 94.911C101.546 94.911 71.2636 88.845 75.9522 80.1526C82.4279 68.143 101.546 94.911 101.546 94.911Z" fill="white"/>
<path d="M119.012 121.002C119.012 121.002 102.997 131.796 94.8272 118.79C86.6561 105.782 119.012 121.002 119.012 121.002Z" fill="white"/>
<path d="M137.014 139.206C137.014 139.206 112.281 153.368 110.269 141.346C108.257 129.324 137.014 139.206 137.014 139.206Z" fill="white"/>
<path d="M146.475 141.548C146.475 141.548 131.929 122.448 143.502 118.707C155.076 114.968 146.475 141.548 146.475 141.548Z" fill="white"/>
<path d="M122.841 47.7604C122.841 47.7604 129.23 32.8553 137.746 36.0488C146.264 39.2439 122.841 47.7604 122.841 47.7604Z" stroke="white" stroke-width="2.0893" stroke-miterlimit="10" stroke-linecap="round" stroke-linejoin="round"/>
<path d="M83.3149 34.196C83.3149 34.196 63.5132 10.5053 78.9396 2.97176C94.3645 -4.56334 83.3149 34.196 83.3149 34.196Z" stroke="white" stroke-width="2.0893" stroke-miterlimit="10" stroke-linecap="round" stroke-linejoin="round"/>
<path d="M2 96.7362C24.3592 138.26 73.8655 176.588 129.762 184.572" stroke="white" stroke-width="2.0893" stroke-miterlimit="10" stroke-linecap="round" stroke-linejoin="round"/>
<path d="M200.03 99.9297C200.03 99.9297 235.165 114.303 227.18 149.438" stroke="white" stroke-width="2.0893" stroke-miterlimit="10" stroke-linecap="round" stroke-linejoin="round"/>
</svg>
